<svg width="1071" height="170" viewBox="0 0 1071 170" fill="none" xmlns="http://www.w3.org/2000/svg">
<path d="M346.254 131.646L311.492 74.3083L343.397 20.465H317.047L297.048 54.7722L277.206 20.465H250.222L282.603 73.3553L248 131.646H275.143L297.365 93.5267L319.27 131.646H346.254Z" fill="white"/>
<path d="M392.461 110.998C383.889 110.998 379.127 106.233 379.127 97.9739V64.6197H402.461V45.8777H378.81V23.6416H374.365L340.556 59.5371V64.6197H355.953V101.151C355.953 120.051 367.54 131.646 386.429 131.646H402.937V110.998H392.461Z" fill="white"/>
<path d="M462.57 45.4012C451.459 45.4012 443.84 48.8955 437.649 56.5193L433.522 45.8777H418.76V131.646H441.935V87.1735C441.935 73.1965 447.014 67.3198 460.03 67.3198H470.189V45.4012H462.57Z" fill="white"/>
<path d="M564.713 88.6029C564.713 63.8255 546.618 43.4953 520.269 43.4953C494.872 43.4953 475.825 63.0314 475.825 88.7618C475.825 114.492 495.031 134.187 520.269 134.187C540.269 134.187 556.618 122.275 562.809 103.533H538.523C535.031 109.727 528.364 113.539 520.269 113.539C508.999 113.539 501.38 107.027 499.317 95.2738H564.237C564.555 93.0502 564.713 90.8266 564.713 88.6029ZM520.269 63.349C530.745 63.349 538.205 69.0669 541.539 79.5497H499.952C502.65 69.3846 509.952 63.349 520.269 63.349Z" fill="white"/>
<path d="M651.052 45.8777L648.671 53.978C641.21 47.466 631.528 43.4953 620.417 43.4953C594.702 43.4953 575.496 62.8725 575.496 88.7618C575.496 114.651 594.702 134.187 620.417 134.187C631.369 134.187 640.893 130.375 648.194 123.863L650.258 131.646H668.353V45.8777H651.052ZM622.321 112.269C608.829 112.269 598.988 102.103 598.988 88.7618C598.988 75.2613 608.829 65.255 622.321 65.255C635.813 65.255 645.655 75.2613 645.655 88.7618C645.655 102.262 635.813 112.269 622.321 112.269Z" fill="white"/>
<path d="M788.262 43.9718C777.31 43.9718 767.627 49.372 761.754 57.6311C756.675 49.0543 747.786 43.9718 736.834 43.9718C726.675 43.9718 717.31 48.8955 711.278 56.5193L706.992 45.8777H690.802V131.646H713.977V85.2675C713.977 71.9258 720.167 64.302 730.643 64.302C738.897 64.302 743.342 70.3375 743.342 81.7733V131.646H765.881V85.2675C765.881 71.9258 772.072 64.302 782.389 64.302C790.802 64.302 795.246 70.3375 795.246 81.7733V131.646H818.421V77.9614C818.421 57.79 806.04 43.9718 788.262 43.9718Z" fill="white"/>
<path d="M839.765 34.442H862.781V13H839.765V34.442ZM839.765 131.646H862.94V45.8777H839.765V131.646Z" fill="white"/>
<path d="M933.917 43.9718C922.33 43.9718 912.012 48.8955 905.504 56.5193L901.06 45.8777H885.187V131.646H908.361V86.697C908.361 72.8788 915.663 64.302 927.568 64.302C937.568 64.302 942.488 70.4964 942.488 83.5204V131.646H965.663V79.7085C965.663 57.9488 953.441 43.9718 933.917 43.9718Z" fill="white"/>
<path d="M1056.08 45.8777L1052.27 54.4545C1044.81 47.6248 1034.97 43.4953 1023.86 43.4953C999.889 43.4953 981.159 62.5549 981.159 86.5382C981.159 110.68 999.889 129.581 1023.86 129.581C1033.06 129.581 1041.48 126.722 1048.3 121.957V125.134C1048.3 137.681 1038.62 145.305 1026.87 145.305C1018.3 145.305 1009.25 141.334 1006.56 133.552H983.54C987.508 153.088 1004.02 165 1027.19 165C1054.33 165 1071 148.641 1071 121.798V46.0365L1056.08 45.8777ZM1026.56 108.774C1013.86 108.774 1004.65 99.4034 1004.65 86.697C1004.65 73.8318 1013.86 64.4608 1026.56 64.4608C1039.25 64.4608 1048.46 73.8318 1048.46 86.697C1048.46 99.4034 1039.25 108.774 1026.56 108.774Z" fill="white"/>
<path d="M148.358 83.0921C152.667 82.2714 155.651 87.1133 152.999 90.56L95.3998 163.188C92.4991 166.881 86.532 164.501 87.0293 159.905L92.8307 97.5356C92.9964 95.4839 94.5707 93.7606 96.6426 93.3502L148.358 83.0921Z" fill="white"/>
<path d="M172.071 53.5018C173.888 55.4499 172.897 58.6157 170.336 59.1839L100.619 72.9023C96.0757 73.7952 93.1019 68.3566 96.406 65.1096L137.873 24.3603C139.773 22.4933 142.829 22.5745 144.647 24.4415L172.071 53.5018Z" fill="white"/>
<path d="M108.95 9.94284C112.79 10.4421 114.342 15.1849 111.646 18.0139L82.5657 47.6358C80.8503 49.3831 78.0727 49.4663 76.1939 47.8022L32.5733 8.27869C29.1424 5.20002 31.756 -0.541293 36.2488 0.041159L108.95 9.94284Z" fill="white"/>
<path d="M69.8506 72.4017C72.0766 74.3666 73.1484 77.232 72.9835 80.0974L65.8936 165.732C65.4814 170.644 58.6388 171.627 56.8251 167.042L0.351838 22.3798C-1.46189 17.7952 4.14447 13.9473 7.85437 17.2221L69.8506 72.4017Z" fill="white"/>
</svg>
