<?xml version="1.0" encoding="iso-8859-1"?>
<!-- Generator: Adobe Illustrator 19.0.0, SVG Export Plug-In . SVG Version: 6.00 Build 0)  -->
<svg version="1.1" id="Capa_1" xmlns="http://www.w3.org/2000/svg" xmlns:xlink="http://www.w3.org/1999/xlink" x="0px" y="0px"
	 viewBox="0 0 384 384" style="enable-background:new 0 0 384 384;" xml:space="preserve">
<g>
	<g>
		<path d="M341.333,21.333H42.667C19.093,21.333,0,40.427,0,64v256c0,23.573,19.093,42.667,42.667,42.667h298.667
			C364.907,362.667,384,343.573,384,320V64C384,40.427,364.907,21.333,341.333,21.333z M170.667,170.667h-32V160H96v64h42.667
			v-10.667h32v21.333c0,11.733-9.493,21.333-21.333,21.333h-64C73.493,256,64,246.4,64,234.667v-85.333
			C64,137.6,73.493,128,85.333,128h64c11.84,0,21.333,9.6,21.333,21.333V170.667z M320,170.667h-32V160h-42.667v64H288v-10.667h32
			v21.333C320,246.4,310.507,256,298.667,256h-64c-11.84,0-21.333-9.6-21.333-21.333v-85.333c0-11.733,9.493-21.333,21.333-21.333
			h64c11.84,0,21.333,9.6,21.333,21.333V170.667z"/>
	</g>
</g>
<g>
</g>
<g>
</g>
<g>
</g>
<g>
</g>
<g>
</g>
<g>
</g>
<g>
</g>
<g>
</g>
<g>
</g>
<g>
</g>
<g>
</g>
<g>
</g>
<g>
</g>
<g>
</g>
<g>
</g>
</svg>
