<svg width="167" height="31" viewBox="0 0 167 31" fill="none" xmlns="http://www.w3.org/2000/svg">
<path d="M19.904 24L12.896 12.448L19.328 1.59999H14.016L9.98401 8.51199L5.98401 1.59999H0.544008L7.07201 12.256L0.0960083 24H5.56801L10.048 16.32L14.464 24H19.904Z" fill="#2D3748"/>
<path d="M29.2193 19.84C27.4913 19.84 26.5313 18.88 26.5313 17.216V10.496H31.2353V6.71999H26.4673V2.23999H25.5713L18.7553 9.47199V10.496H21.8593V17.856C21.8593 21.664 24.1953 24 28.0033 24H31.3313V19.84H29.2193Z" fill="#2D3748"/>
<path d="M43.3533 6.62399C41.1133 6.62399 39.5773 7.32799 38.3293 8.86399L37.4973 6.71999H34.5213V24H39.1933V15.04C39.1933 12.224 40.2173 11.04 42.8413 11.04H44.8893V6.62399H43.3533Z" fill="#2D3748"/>
<path d="M63.9455 15.328C63.9455 10.336 60.2975 6.23999 54.9855 6.23999C49.8655 6.23999 46.0255 10.176 46.0255 15.36C46.0255 20.544 49.8975 24.512 54.9855 24.512C59.0175 24.512 62.3135 22.112 63.5615 18.336H58.6655C57.9615 19.584 56.6175 20.352 54.9855 20.352C52.7135 20.352 51.1775 19.04 50.7615 16.672H63.8495C63.9135 16.224 63.9455 15.776 63.9455 15.328ZM54.9855 10.24C57.0975 10.24 58.6015 11.392 59.2735 13.504H50.8895C51.4335 11.456 52.9055 10.24 54.9855 10.24Z" fill="#2D3748"/>
<path d="M81.3513 6.71999L80.8713 8.35199C79.3673 7.03999 77.4153 6.23999 75.1753 6.23999C69.9913 6.23999 66.1193 10.144 66.1193 15.36C66.1193 20.576 69.9913 24.512 75.1753 24.512C77.3833 24.512 79.3033 23.744 80.7753 22.432L81.1913 24H84.8393V6.71999H81.3513ZM75.5593 20.096C72.8393 20.096 70.8553 18.048 70.8553 15.36C70.8553 12.64 72.8393 10.624 75.5593 10.624C78.2793 10.624 80.2633 12.64 80.2633 15.36C80.2633 18.08 78.2793 20.096 75.5593 20.096Z" fill="#2D3748"/>
<path d="M109.013 6.33599C106.805 6.33599 104.853 7.42399 103.669 9.08799C102.645 7.35999 100.853 6.33599 98.645 6.33599C96.597 6.33599 94.709 7.32799 93.493 8.86399L92.629 6.71999H89.365V24H94.037V14.656C94.037 11.968 95.285 10.432 97.397 10.432C99.061 10.432 99.957 11.648 99.957 13.952V24H104.501V14.656C104.501 11.968 105.749 10.432 107.829 10.432C109.525 10.432 110.421 11.648 110.421 13.952V24H115.093V13.184C115.093 9.11999 112.597 6.33599 109.013 6.33599Z" fill="#2D3748"/>
<path d="M119.396 4.41599H124.036V0.095993H119.396V4.41599ZM119.396 24H124.068V6.71999H119.396V24Z" fill="#2D3748"/>
<path d="M138.377 6.33599C136.041 6.33599 133.961 7.32799 132.649 8.86399L131.753 6.71999H128.553V24H133.225V14.944C133.225 12.16 134.697 10.432 137.097 10.432C139.113 10.432 140.105 11.68 140.105 14.304V24H144.777V13.536C144.777 9.15199 142.313 6.33599 138.377 6.33599Z" fill="#2D3748"/>
<path d="M163.005 6.71999L162.237 8.44799C160.733 7.07199 158.749 6.23999 156.509 6.23999C151.677 6.23999 147.901 10.08 147.901 14.912C147.901 19.776 151.677 23.584 156.509 23.584C158.365 23.584 160.061 23.008 161.437 22.048V22.688C161.437 25.216 159.485 26.752 157.117 26.752C155.389 26.752 153.565 25.952 153.021 24.384H148.381C149.181 28.32 152.509 30.72 157.181 30.72C162.653 30.72 166.013 27.424 166.013 22.016V6.75199L163.005 6.71999ZM157.053 19.392C154.493 19.392 152.637 17.504 152.637 14.944C152.637 12.352 154.493 10.464 157.053 10.464C159.613 10.464 161.469 12.352 161.469 14.944C161.469 17.504 159.613 19.392 157.053 19.392Z" fill="#2D3748"/>
</svg>
