<svg width="176" height="123" viewBox="0 0 176 123" fill="none" xmlns="http://www.w3.org/2000/svg">
<path d="M87.5619 111.228C117.262 111.228 141.462 87.1275 141.462 57.5275C141.362 27.8275 117.262 3.72754 87.5619 3.72754C57.7619 3.72754 33.6619 27.8275 33.6619 57.4275C33.6619 87.1275 57.7619 111.228 87.5619 111.228Z" fill="#EAEEF9"/>
<g filter="url(#filter0_d)">
<path d="M145.062 64.3276C145.062 75.8276 135.762 85.1276 124.162 85.1276C123.962 85.1276 122.262 85.1276 109.762 85.1276C101.062 85.1276 87.1618 85.1276 64.9618 85.1276H54.3618C40.4618 85.4276 29.3618 74.3276 29.3618 60.9276C29.3618 47.4276 40.5618 36.2276 54.6618 36.9276C66.7618 -0.872377 122.162 4.42762 126.862 43.5276C137.262 44.8276 145.062 53.6276 145.062 64.3276Z" fill="url(#paint0_linear)"/>
</g>
<path d="M124.162 85.1276C135.662 85.1276 145.062 75.8276 145.062 64.3276C145.062 52.8276 135.662 43.5276 124.162 43.5276C112.662 43.5276 103.262 52.8276 103.262 64.3276C103.262 75.8276 112.662 85.1276 124.162 85.1276Z" fill="url(#paint1_linear)"/>
<path d="M90.0618 85.3276C110.562 85.3276 127.262 68.7276 127.262 48.2276C127.262 27.7276 110.562 11.1276 90.0618 11.1276C69.5618 11.1276 52.8618 27.7276 52.8618 48.2276C52.8618 68.7276 69.4618 85.3276 90.0618 85.3276Z" fill="url(#paint2_linear)"/>
<path d="M76.303 57.7464C77.8777 57.7464 79.2101 56.4141 79.2101 54.8394C79.2101 53.2648 77.8777 51.9324 76.303 51.9324C74.7284 51.9324 73.396 53.2648 73.396 54.8394C73.396 56.4141 74.7284 57.7464 76.303 57.7464Z" fill="#989FB0"/>
<path d="M98.5904 57.7464C100.165 57.7464 101.497 56.4141 101.497 54.8394C101.497 53.2648 100.165 51.9324 98.5904 51.9324C97.0157 51.9324 95.6833 53.2648 95.6833 54.8394C95.6833 56.5352 97.0157 57.7464 98.5904 57.7464Z" fill="#989FB0"/>
<path d="M76.1894 45.2218L69.7947 48.6746L70.6579 50.2732L77.0527 46.8204L76.1894 45.2218Z" fill="#989FB0"/>
<path d="M98.1951 45.1757L97.332 46.7745L103.728 50.2266L104.591 48.6278L98.1951 45.1757Z" fill="#989FB0"/>
<path d="M87.4467 64.5295C89.3198 64.5295 90.8383 63.3906 90.8383 61.9858C90.8383 60.581 89.3198 59.4421 87.4467 59.4421C85.5736 59.4421 84.0552 60.581 84.0552 61.9858C84.0552 63.3906 85.5736 64.5295 87.4467 64.5295Z" fill="#989FB0"/>
<path d="M17.8164 18.0831C17.8164 18.0831 3.83786 21.6322 8.07378 24.4715C12.3097 27.1688 22.3347 31.8537 31.795 28.7304C41.2552 25.6072 31.795 21.2063 31.9362 21.2063C32.0773 21.2063 17.8164 18.0831 17.8164 18.0831Z" fill="#CED7E2"/>
<path d="M0.731445 16.9474C5.81455 18.509 21.4875 15.9537 31.5125 9.42334C39.4195 19.2189 42.3847 21.7742 45.2086 22.0581C40.8315 26.459 26.2882 33.5572 18.0987 24.3296C8.4973 30.434 0.731445 16.9474 0.731445 16.9474Z" fill="#E9EDF9"/>
<path d="M130.801 52.4436C136.166 52.7275 150.709 46.1972 158.616 37.3954C168.783 44.9195 172.171 46.6231 175.137 46.1972C171.889 51.5918 162.005 63.3748 148.027 64.2266C137.86 58.2641 130.801 52.4436 130.801 52.4436Z" fill="#E9EDF9"/>
<path d="M87.9699 119.035C86.9083 113.767 76.9611 101.309 66.4672 95.8438C71.2218 84.1239 72.0275 80.4176 70.8764 77.652C76.91 79.4534 90.7836 86.0906 95.0905 99.4163C91.8483 110.747 87.9699 119.035 87.9699 119.035Z" fill="white"/>
<defs>
<filter id="filter0_d" x="7.36182" y="0.218018" width="159.7" height="117.916" filterUnits="userSpaceOnUse" color-interpolation-filters="sRGB">
<feFlood flood-opacity="0" result="BackgroundImageFix"/>
<feColorMatrix in="SourceAlpha" type="matrix" values="0 0 0 0 0 0 0 0 0 0 0 0 0 0 0 0 0 0 127 0"/>
<feOffset dy="11"/>
<feGaussianBlur stdDeviation="11"/>
<feColorMatrix type="matrix" values="0 0 0 0 0.397708 0 0 0 0 0.47749 0 0 0 0 0.575 0 0 0 0.27 0"/>
<feBlend mode="normal" in2="BackgroundImageFix" result="effect1_dropShadow"/>
<feBlend mode="normal" in="SourceGraphic" in2="effect1_dropShadow" result="shape"/>
</filter>
<linearGradient id="paint0_linear" x1="87.2118" y1="41.7628" x2="87.1741" y2="85.9304" gradientUnits="userSpaceOnUse">
<stop stop-color="white"/>
<stop offset="0.9964" stop-color="#ECF0F5"/>
</linearGradient>
<linearGradient id="paint1_linear" x1="101.038" y1="39.0494" x2="119.565" y2="59.3131" gradientUnits="userSpaceOnUse">
<stop stop-color="#BCCBE1"/>
<stop offset="0.9942" stop-color="white" stop-opacity="0"/>
</linearGradient>
<linearGradient id="paint2_linear" x1="49.3784" y1="31.2034" x2="78.5796" y2="42.6307" gradientUnits="userSpaceOnUse">
<stop stop-color="#E2E8F0"/>
<stop offset="0.9942" stop-color="white" stop-opacity="0"/>
</linearGradient>
</defs>
</svg>
