<?xml version='1.0' encoding='utf-8'?>
<!DOCTYPE svg PUBLIC '-//W3C//DTD SVG 1.1//EN' 'http://www.w3.org/Graphics/SVG/1.1/DTD/svg11.dtd'>
<svg  version="1.1" xmlns="http://www.w3.org/2000/svg"  viewBox="0 0 64 64" xmlns:xlink="http://www.w3.org/1999/xlink" enable-background="new 0 0 64 64">
  <g>
    <g fill="#1D1D1B">
      <path d="m62,45c-1.105,0-2,0.896-2,2v13h-13c-1.105,0-2,0.895-2,2s0.895,2 2,2h15c1.105,0 2-0.895 2-2v-15c0-1.104-0.895-2-2-2z"/>
      <path d="m17,60h-13v-13c0-1.104-0.895-2-2-2s-2,0.896-2,2v15c0,1.105 0.895,2 2,2h15c1.105,0 2-0.895 2-2s-0.895-2-2-2z"/>
      <path d="m17-.001h-15c-1.105,0-2,0.896-2,2v15c0,1.104 0.895,2 2,2s2-0.896 2-2v-13h13c1.105,0 2-0.896 2-2s-0.895-2-2-2z"/>
      <path d="m62-.001h-15c-1.105,0-2,0.896-2,2s0.895,2 2,2h13v13c0,1.104 0.895,2 2,2s2-0.896 2-2v-15c0-1.104-0.895-2-2-2z"/>
    </g>
  </g>
</svg>
