<?xml version='1.0' encoding='utf-8'?>
<!DOCTYPE svg PUBLIC '-//W3C//DTD SVG 1.1//EN' 'http://www.w3.org/Graphics/SVG/1.1/DTD/svg11.dtd'>
<svg version="1.1" xmlns="http://www.w3.org/2000/svg" viewBox="0 0 64 64" xmlns:xlink="http://www.w3.org/1999/xlink" enable-background="new 0 0 64 64">
  <g>
    <g fill="#1D1D1B">
      <path d="m2.615,24.797h19.158c1.446,0 2.616-1.169 2.616-2.61v-19.577c0-1.441-1.17-2.61-2.616-2.61s-2.615,1.169-2.615,2.61v16.966h-16.543c-1.445,0-2.615,1.169-2.615,2.611s1.17,2.61 2.615,2.61z"/>
      <path d="m41.767,24.567h19.618c1.445,0 2.615-1.169 2.615-2.61s-1.17-2.61-2.615-2.61h-17.003v-16.507c0-1.441-1.17-2.61-2.615-2.61s-2.617,1.168-2.617,2.61v19.117c0,1.441 1.171,2.61 2.617,2.61z"/>
      <path d="m61.385,39.203h-19.158c-1.446,0-2.616,1.169-2.616,2.61v19.577c0,1.441 1.17,2.61 2.616,2.61s2.615-1.169 2.615-2.61v-16.966h16.543c1.445,0 2.615-1.169 2.615-2.61s-1.17-2.611-2.615-2.611z"/>
      <path d="m22.233,39.433h-19.618c-1.445,0-2.615,1.169-2.615,2.61s1.17,2.61 2.615,2.61h17.003v16.507c0,1.441 1.17,2.61 2.615,2.61s2.616-1.169 2.616-2.61v-19.117c0.001-1.441-1.17-2.61-2.616-2.61z"/>
    </g>
  </g>
</svg>
