<?xml version='1.0' encoding='utf-8'?>
<!DOCTYPE svg PUBLIC '-//W3C//DTD SVG 1.1//EN' 'http://www.w3.org/Graphics/SVG/1.1/DTD/svg11.dtd'>
<svg version="1.1" xmlns="http://www.w3.org/2000/svg" viewBox="0 0 64 64" xmlns:xlink="http://www.w3.org/1999/xlink" enable-background="new 0 0 64 64">
  <g fill="#1D1D1B">
    <path d="M32,0C14.355,0,0,14.355,0,32s14.355,32,32,32s32-14.355,32-32S49.645,0,32,0z M32,60   C16.561,60,4,47.439,4,32S16.561,4,32,4s28,12.561,28,28S47.439,60,32,60z"/>
    <path d="m43.639,24.572l-11.201,5.037-13.29-13.291c-0.781-0.781-2.047-0.781-2.828,0s-0.781,2.047 0,2.828l14.266,14.268c0.029,0.029 0.068,0.039 0.098,0.066 0.143,0.125 0.297,0.227 0.465,0.307 0.061,0.029 0.117,0.061 0.182,0.082 0.212,0.078 0.435,0.131 0.665,0.131 0.002,0 0.004,0 0.004,0l0,0c0.004,0 0.008-0.002 0.012-0.002 0.264-0.002 0.525-0.061 0.773-0.166 0.012-0.006 0.023-0.002 0.035-0.008l12.459-5.604c1.008-0.453 1.457-1.637 1.004-2.645-0.455-1.005-1.635-1.454-2.644-1.003z"/>
  </g>
</svg>
