<?xml version='1.0' encoding='utf-8'?>
<!DOCTYPE svg PUBLIC '-//W3C//DTD SVG 1.1//EN' 'http://www.w3.org/Graphics/SVG/1.1/DTD/svg11.dtd'>
<svg version="1.1" xmlns="http://www.w3.org/2000/svg" viewBox="0 0 64 64" xmlns:xlink="http://www.w3.org/1999/xlink" enable-background="new 0 0 64 64">
  <g>
    <g fill="#1D1D1B">
      <path d="m63.934,10.881c-0.012-0.052-0.016-0.104-0.031-0.154-0.072-0.228-0.184-0.434-0.326-0.621-0.014-0.018-0.016-0.039-0.029-0.057l-7.57-9.299c-0.709-0.871-1.988-1.004-2.861-0.291-0.869,0.711-1.001,1.994-0.292,2.865l3.636,4.467c-5.477-0.684-10.469,0.277-10.701,0.324-17.714,2.792-29.857,19.498-27.073,37.241 0.159,1.005 1.022,1.721 2.008,1.721 0.105,0 0.21-0.008 0.317-0.024 1.11-0.176 1.867-1.218 1.694-2.329-2.437-15.524 8.188-30.142 23.767-32.599 0.067-0.012 5.309-1.033 10.486-0.156l-5.463,3.28c-0.963,0.579-1.275,1.83-0.699,2.795s1.83,1.276 2.789,0.7l9.428-5.661c0.053-0.032 0.092-0.077 0.141-0.112 0.031-0.023 0.07-0.031 0.1-0.057 0.027-0.02 0.037-0.051 0.061-0.072 0.178-0.16 0.338-0.338 0.449-0.549 0.002-0.002 0.004-0.006 0.006-0.008 0.105-0.205 0.164-0.428 0.199-0.658 0.01-0.066 0.012-0.13 0.016-0.197 0.002-0.071 0.02-0.141 0.016-0.211-0.008-0.117-0.043-0.227-0.068-0.338z"/>
      <path d="M58.276,26.029c-1.124,0-2.034,0.912-2.034,2.037v29.822c0,1.123-0.91,2.037-2.033,2.037H6.101    c-1.122,0-2.033-0.914-2.033-2.037V9.694c0-1.123,0.911-2.037,2.033-2.037h24.054c1.125,0,2.034-0.912,2.034-2.037    s-0.909-2.038-2.034-2.038H6.101C2.736,3.582,0,6.324,0,9.694v48.194C0,61.259,2.736,64,6.101,64h48.108    c3.365,0,6.102-2.741,6.102-6.111V28.066C60.311,26.941,59.4,26.029,58.276,26.029z"/>
    </g>
  </g>
</svg>
