<?xml version='1.0' encoding='utf-8'?>
<!DOCTYPE svg PUBLIC '-//W3C//DTD SVG 1.1//EN' 'http://www.w3.org/Graphics/SVG/1.1/DTD/svg11.dtd'>
<svg version="1.1" xmlns="http://www.w3.org/2000/svg" viewBox="0 0 64 64" xmlns:xlink="http://www.w3.org/1999/xlink" enable-background="new 0 0 64 64">
  <g>
    <g fill="#1D1D1B">
      <path d="m8.135,22.637c1.153,0 2.087-0.935 2.087-2.087 0-1.153-0.934-2.088-2.087-2.088-4.486,0-8.135,3.144-8.135,7.011v17.792c0,3.866 3.649,7.011 8.135,7.011 1.153,0 2.087-0.935 2.087-2.088 0-1.152-0.934-2.087-2.087-2.087-2.145,0-3.96-1.298-3.96-2.835v-17.793c0-1.537 1.815-2.836 3.96-2.836z"/>
      <path d="m33.401,63.667c0.35,0 0.701-0.087 1.019-0.265 0.661-0.369 1.068-1.066 1.068-1.823v-55.319c0-0.763-0.415-1.465-1.084-1.831-0.669-0.366-1.48-0.339-2.128,0.073l-20.331,13.005c-0.6,0.383-0.963,1.046-0.963,1.758v29.783c0,0.725 0.375,1.397 0.992,1.776l20.332,12.533c0.337,0.206 0.716,0.31 1.095,0.31zm-2.088-5.826l-16.156-9.958v-27.475l16.156-10.335v47.768z"/>
      <path d="m56.023,7.177c-1.029,0.515-1.449,1.769-0.937,2.799 0.106,0.212 10.426,21.475-0.052,46.269-0.45,1.061 0.047,2.286 1.109,2.735 0.265,0.112 0.539,0.166 0.811,0.166 0.813,0 1.586-0.479 1.925-1.276 11.255-26.627 0.409-48.83-0.058-49.762-0.513-1.029-1.764-1.445-2.798-0.931z"/>
      <path d="m49.42,52.457c0.237,0.086 0.479,0.128 0.719,0.128 0.85,0 1.651-0.524 1.961-1.37 6.805-18.556 0.236-34.054-0.047-34.706-0.459-1.057-1.688-1.535-2.742-1.082-1.058,0.458-1.543,1.686-1.089,2.744 0.063,0.145 6.169,14.675-0.044,31.606-0.397,1.083 0.158,2.283 1.242,2.68z"/>
      <path d="m43.202,43.213c0.146,0.03 0.29,0.045 0.434,0.045 0.966,0 1.834-0.672 2.042-1.655 1.743-8.243 0.053-15.151-0.021-15.441-0.279-1.117-1.407-1.792-2.528-1.516-1.117,0.278-1.798,1.41-1.521,2.528 0.018,0.062 1.521,6.304-0.015,13.564-0.241,1.128 0.48,2.235 1.609,2.475z"/>
    </g>
  </g>
</svg>
