<?xml version='1.0' encoding='utf-8'?>
<!DOCTYPE svg PUBLIC '-//W3C//DTD SVG 1.1//EN' 'http://www.w3.org/Graphics/SVG/1.1/DTD/svg11.dtd'>
<svg version="1.1" xmlns="http://www.w3.org/2000/svg" viewBox="0 0 64 64" xmlns:xlink="http://www.w3.org/1999/xlink" enable-background="new 0 0 64 64">
  <g>
    <g fill="#1D1D1B">
      <path d="m8.146,22.768c1.156,0 2.091-0.936 2.091-2.091s-0.935-2.091-2.091-2.091c-4.491,0-8.146,3.149-8.146,7.021v17.818c0,3.872 3.655,7.021 8.146,7.021 1.156,0 2.091-0.936 2.091-2.091s-0.935-2.091-2.091-2.091c-2.147,0-3.964-1.3-3.964-2.839v-17.818c0-1.539 1.816-2.839 3.964-2.839z"/>
      <path d="m34.454,4.533c-0.668-0.366-1.484-0.34-2.131,0.073l-20.361,13.024c-0.601,0.384-0.963,1.047-0.963,1.76v29.826c0,0.726 0.374,1.399 0.993,1.779l20.361,12.551c0.337,0.207 0.717,0.312 1.096,0.312 0.352,0 0.702-0.088 1.021-0.266 0.663-0.37 1.07-1.067 1.07-1.825v-55.401c0-0.763-0.417-1.467-1.086-1.833zm-3.096,53.489l-16.178-9.973v-27.514l16.179-10.351v47.838z"/>
      <path d="m52.129,16.632c-0.46-1.058-1.691-1.538-2.747-1.084-1.06,0.459-1.545,1.689-1.09,2.749 0.063,0.145 6.178,14.696-0.044,31.651-0.396,1.083 0.159,2.285 1.244,2.683 0.238,0.087 0.48,0.128 0.719,0.128 0.853,0 1.652-0.525 1.964-1.372 6.814-18.582 0.237-34.103-0.046-34.755z"/>
      <path d="m43.191,24.779c-1.118,0.278-1.801,1.412-1.522,2.532 0.016,0.062 1.522,6.312-0.016,13.583-0.242,1.13 0.481,2.239 1.613,2.479 0.145,0.03 0.29,0.045 0.433,0.045 0.967,0 1.837-0.674 2.045-1.658 1.745-8.254 0.053-15.172-0.021-15.462-0.278-1.12-1.412-1.795-2.532-1.519z"/>
    </g>
  </g>
</svg>
