<?xml version='1.0' encoding='utf-8'?>
<!DOCTYPE svg PUBLIC '-//W3C//DTD SVG 1.1//EN' 'http://www.w3.org/Graphics/SVG/1.1/DTD/svg11.dtd'>
<svg version="1.1" xmlns="http://www.w3.org/2000/svg" viewBox="0 0 64 64" xmlns:xlink="http://www.w3.org/1999/xlink" enable-background="new 0 0 64 64">
  <g>
    <g fill="#1D1D1B">
      <path d="m8.156,22.715c1.155,0 2.093-0.938 2.093-2.094s-0.938-2.093-2.093-2.093c-4.497,0-8.156,3.153-8.156,7.03v17.841c0,3.877 3.659,7.03 8.156,7.03 1.155,0 2.093-0.937 2.093-2.094 0-1.156-0.938-2.093-2.093-2.093-2.153,0-3.97-1.302-3.97-2.843v-17.841c0.001-1.541 1.817-2.843 3.97-2.843z"/>
      <path d="m33.492,63.857c0.352,0 0.703-0.088 1.018-0.266 0.663-0.37 1.076-1.069 1.076-1.828v-55.471c0-0.765-0.417-1.469-1.091-1.836-0.668-0.367-1.485-0.34-2.132,0.072l-20.388,13.042c-0.601,0.385-0.965,1.049-0.965,1.763v29.864c0,0.727 0.375,1.402 0.994,1.781l20.389,12.567c0.336,0.208 0.717,0.312 1.099,0.312zm-2.093-5.842l-16.203-9.986v-27.55l16.203-10.364v47.9z"/>
      <path d="m43.316,43.347c0.147,0.031 0.295,0.045 0.438,0.045 0.968,0 1.836-0.675 2.044-1.66 1.75-8.265 0.058-15.192-0.016-15.482-0.282-1.12-1.415-1.797-2.536-1.521-1.122,0.279-1.803,1.415-1.526,2.536 0.015,0.062 1.523,6.32-0.019,13.601-0.236,1.131 0.485,2.241 1.615,2.481z"/>
    </g>
  </g>
</svg>
