<?xml version='1.0' encoding='utf-8'?>
<!DOCTYPE svg PUBLIC '-//W3C//DTD SVG 1.1//EN' 'http://www.w3.org/Graphics/SVG/1.1/DTD/svg11.dtd'>
<svg version="1.1" xmlns="http://www.w3.org/2000/svg" viewBox="0 0 64 64" xmlns:xlink="http://www.w3.org/1999/xlink" enable-background="new 0 0 64 64">
  <g>
    <g>
      <path d="M8.135,22.824c1.154,0,2.088-0.936,2.088-2.088s-0.934-2.088-2.088-2.088C3.65,18.648,0,21.793,0,25.66    v17.793c0,3.867,3.65,7.012,8.135,7.012c1.154,0,2.088-0.935,2.088-2.088c0-1.153-0.934-2.087-2.088-2.087    c-2.145,0-3.959-1.298-3.959-2.836V25.66C4.176,24.123,5.99,22.824,8.135,22.824z"/>
      <path d="m33.404,63.857c0.35,0 0.7-0.088 1.018-0.265 0.66-0.369 1.07-1.066 1.07-1.823v-55.324c0-0.763-0.417-1.465-1.086-1.831-0.668-0.366-1.483-0.34-2.127,0.072l-20.335,13.007c-0.601,0.383-0.963,1.046-0.963,1.758v29.785c0,0.725 0.375,1.398 0.993,1.776l20.332,12.534c0.338,0.207 0.719,0.311 1.098,0.311zm-2.089-5.827l-16.158-9.959v-27.476l16.158-10.336v47.771z"/>
    </g>
  </g>
</svg>
