<svg width="679" height="300" viewBox="0 0 679 300" fill="none" xmlns="http://www.w3.org/2000/svg">
<path d="M0 83C0 78.5817 3.58172 75 8 75H112C116.418 75 120 78.5817 120 83V247C120 251.418 116.418 255 112 255H8C3.58172 255 0 251.418 0 247V83Z" fill="#1a1a1e"/>
<path d="M133 83C133 78.5817 136.582 75 141 75H245C249.418 75 253 78.5817 253 83V247C253 251.418 249.418 255 245 255H141C136.582 255 133 251.418 133 247V83Z" fill="#1a1a1e"/>
<path d="M426 83C426 78.5817 429.582 75 434 75H538C542.418 75 546 78.5817 546 83V247C546 251.418 542.418 255 538 255H434C429.582 255 426 251.418 426 247V83Z" fill="#1a1a1e"/>
<path d="M559 83C559 78.5817 562.582 75 567 75H671C675.418 75 679 78.5817 679 83V247C679 251.418 675.418 255 671 255H567C562.582 255 559 251.418 559 247V83Z" fill="#1a1a1e"/>
<path d="M239 7.99999C239 3.58171 242.582 0 247 0H431C435.418 0 439 3.58172 439 8V292C439 296.418 435.418 300 431 300H247C242.582 300 239 296.418 239 292V7.99999Z" fill="#1f1f23"/>
<path d="M361 255C361 241.193 372.193 230 386 230H456C469.807 230 481 241.193 481 255C481 268.807 469.807 280 456 280H386C372.193 280 361 268.807 361 255Z" fill="#814ceb"/>
</svg>
