<svg xmlns="http://www.w3.org/2000/svg" version="1.1" xmlns:xlink="http://www.w3.org/1999/xlink" xmlns:svgjs="http://svgjs.com/svgjs" width="512" height="512" x="0" y="0" viewBox="0 0 512 512" style="enable-background:new 0 0 512 512" xml:space="preserve" class=""><g><g xmlns="http://www.w3.org/2000/svg"><path d="m389.801 129.3-36.301 92.287-97.5 33.413-97.499-33.412-36.302-92.288c.601-1.8 1.8-3.6 3.301-4.799l120-120c5.7-6 15.298-6 20.999 0l120 120c1.502 1.199 2.701 2.999 3.302 4.799z" fill="#fff480" data-original="#fff480"></path><path d="m353.5 221.587 36.301-92.287c-.601-1.8-1.8-3.6-3.301-4.799l-120-120c-2.85-3.001-6.677-4.501-10.5-4.501v255z" fill="#ffc24d" data-original="#ffc24d" class=""></path><path d="m256 255 30 120-30 137h-90c-8.401 0-15-6.599-15-15v-235.699l-25.499-25.801c-1.8-1.5-4.501-5.1-4.501-10.5v-90c0-2.1.3-3.9 1.199-5.7z" fill="#ffc24d" data-original="#ffc24d" class=""></path><g><path d="m391 135v90c0 5.4-2.701 9-4.501 10.499l-25.499 25.802v235.699c0 8.401-6.599 15-15 15h-90v-257l133.801-125.7c.899 1.8 1.199 3.6 1.199 5.7z" fill="#ff9833" data-original="#ff9833" class=""></path></g><g id="Crystal_11_"><g><path d="m179.801 249.3-36.301 62.316-37.5 3.384-37.5-3.384-36.301-62.316c.601-1.8 1.8-3.6 3.301-4.799l60-60c5.7-6 15.298-6 20.999 0l60 60c1.502 1.199 2.701 2.999 3.302 4.799z" fill="#eabfff" data-original="#eabfff"></path></g><path d="m106 315 30 86.881-30 110.119h-60c-8.401 0-15-6.599-15-15v-242c0-2.1.3-3.9 1.199-5.7z" fill="#cb99ff" data-original="#cb99ff"></path></g><g><path d="m479.801 249.3-36.301 62.316-37.5 3.384-37.5-3.384-36.301-62.316c.601-1.8 1.8-3.6 3.301-4.799l60-60c5.7-6 15.298-6 20.999 0l60 60c1.502 1.199 2.701 2.999 3.302 4.799z" fill="#99ffcc" data-original="#99ffcc"></path></g><path d="m406 315 30 86.881-30 110.119h-60c-8.401 0-15-6.599-15-15v-242c0-2.1.3-3.9 1.199-5.7z" fill="#68d9c0" data-original="#68d9c0" class=""></path><path d="m143.5 311.616 36.301-62.316c-.601-1.8-1.8-3.6-3.301-4.799l-60-60c-2.85-3.001-6.677-4.501-10.5-4.501v135z" fill="#cb99ff" data-original="#cb99ff"></path><path d="m181 255v242c0 8.401-6.599 15-15 15h-60v-197l73.801-65.7c.899 1.8 1.199 3.6 1.199 5.7z" fill="#8a73ff" data-original="#8a73ff"></path><path d="m443.5 311.616 36.301-62.316c-.601-1.8-1.8-3.6-3.301-4.799l-60-60c-2.85-3.001-6.677-4.501-10.5-4.501v135z" fill="#68d9c0" data-original="#68d9c0" class=""></path><path d="m481 255v242c0 8.401-6.599 15-15 15h-60v-197l73.801-65.7c.899 1.8 1.199 3.6 1.199 5.7z" fill="#36b3b3" data-original="#36b3b3" class=""></path></g></g></svg>