<svg xmlns="http://www.w3.org/2000/svg" version="1.1" xmlns:xlink="http://www.w3.org/1999/xlink" xmlns:svgjs="http://svgjs.com/svgjs" width="512" height="512" x="0" y="0" viewBox="0 0 512 512" style="enable-background:new 0 0 512 512" xml:space="preserve" class=""><g><g xmlns="http://www.w3.org/2000/svg"><path d="m152.113 332.381 103.887-189.756 103.887 189.756-103.887 86.323z" fill="#fff480" data-original="#fff480"></path><path d="m359.887 332.381-103.887-189.756v276.079z" fill="#ffe566" data-original="#ffe566"></path><g id="Gem_39_"><g fill="#ffc24d"><path d="m450.7 349.699v.3c-.601 3.3-2.401 6-5.099 8.401l-180 150c-2.701 2.399-6.301 3.6-9.6 3.6l-30-75.149 30-57.152 65.7-54.6 58.759-18.795z" fill="#ffc24d" data-original="#ffc24d"></path><path d="m256 0 30 120.069-30 85.03-65.7 120-56.917 40.854-72.083-16.254c-.601-3.3-.3-6.599 1.5-9.899l180-332.599c2.701-4.8 7.8-7.201 13.2-7.201z" fill="#ffc24d" data-original="#ffc24d"></path></g></g><path d="m256 379.699v132.301c-3.3 0-6.899-1.201-9.6-3.6l-180-150c-2.699-2.401-4.499-5.101-5.099-8.401v-.3l129-24.6z" fill="#ffe566" data-original="#ffe566"></path><path d="m450.7 349.699-129-24.6-65.7-120v-205.099c5.4 0 10.499 2.401 13.2 7.202l180 332.599c1.8 3.299 2.1 6.598 1.5 9.898z" fill="#ff9833" data-original="#ff9833" class=""></path></g></g></svg>