<svg xmlns="http://www.w3.org/2000/svg" version="1.1" xmlns:xlink="http://www.w3.org/1999/xlink" xmlns:svgjs="http://svgjs.com/svgjs" width="512" height="512" x="0" y="0" viewBox="0 0 512 512" style="enable-background:new 0 0 512 512" xml:space="preserve" class=""><g><g xmlns="http://www.w3.org/2000/svg"><path d="m81.479 190.195 103.212-115.195h142.618l103.212 115.195-174.521 228.179z" fill="#eabfff" data-original="#eabfff"></path><path d="m256 75v343.374l174.521-228.179-103.212-115.195z" fill="#cb99ff" data-original="#cb99ff"></path><g id="Gem_27_"><g><path d="m512 195-63.085 28.284-57.314-31.584-77.701-86.7 4.486-81.356 64.814-21.844c2.1 1.199 3.9 2.699 5.4 4.799l121 180c1.499 2.701 2.4 5.7 2.4 8.401z" fill="#a080ff" data-original="#a080ff" class=""></path><path d="m512 195c0 3.3-1.199 6.599-3.3 9.3l-241 302c-1.5 2.1-5.4 5.7-11.7 5.7l-30-78.04 30-64.96 135.601-177.3z" fill="#b58dff" data-original="#b58dff" class=""></path><path d="m198.1 105-77.701 86.7-52.026 31.699-68.373-27.8c0-2.999.601-6.299 2.401-9l121-180c1.5-2.1 3.3-3.6 5.4-4.799l69.084 28.204z" fill="#b58dff" data-original="#b58dff" class=""></path><path d="m383.2 1.8-69.3 103.2h-115.8l-69.3-103.2c2.401-1.201 4.799-1.8 7.2-1.8h240c2.401 0 4.799.599 7.2 1.8z" fill="#cb99ff" data-original="#cb99ff"></path></g></g><path d="m256 369v143c-6.301 0-10.201-3.6-11.7-5.7l-241-302c-2.1-2.401-2.999-5.4-3.3-8.701l120.399-3.898z" fill="#cb99ff" data-original="#cb99ff"></path><path d="m256 0v105h57.9l69.3-103.2c-2.401-1.201-4.799-1.8-7.2-1.8z" fill="#b58dff" data-original="#b58dff" class=""></path></g></g></svg>