<svg xmlns="http://www.w3.org/2000/svg" version="1.1" xmlns:xlink="http://www.w3.org/1999/xlink" xmlns:svgjs="http://svgjs.com/svgjs" width="512" height="512" x="0" y="0" viewBox="0 0 512 512" style="enable-background:new 0 0 512 512" xml:space="preserve" class=""><g><g xmlns="http://www.w3.org/2000/svg"><path d="m256 130.899 30 50.101-30 75-56.986 30-63.915-30v-.3l-44.72-51.294 15.621-50.106 2.049-55.8 57.951 7.5 30-21.7z" fill="#99ffcc" data-original="#99ffcc"></path><path d="m406 154.3 17.242 44.458-46.341 56.942v.3l-58.501 30-62.4-30v-125.101l45.197-42.504 44.803 17.605 57.951-7.5z" fill="#80ecc6" data-original="#80ecc6" class=""></path><path d="m406 357.7 2.999 51.736-62.999-3.436-48.719 16.521-41.281-41.422-30-65.322 30-59.777h120.901l43.114 45.834z" fill="#68d9c0" data-original="#68d9c0"></path><g><g><path d="m166 106-60 48.3-50.013 4.201-55.074-57.901c1.199-2.701 2.699-4.801 5.099-6.601l120.988-91.103c1.8-1.5 3.9-2.401 6-2.699l48.086 58.485z" fill="#80ecc6" data-original="#80ecc6" class=""></path><path d="m511.087 411.4c-1.199 2.699-2.699 4.799-5.099 6.599l-120.988 91c-1.199.901-2.699 1.8-4.2 2.1l-47.557-53.52 12.757-51.579 60-48.3 75.359-6.602z" fill="#36b3b3" data-original="#36b3b3" class=""></path><path d="m511.087 100.6-59.723 60.298-45.364-6.598-60-48.3-13.503-52.34 46.503-53.463c2.1.298 4.2 1.199 6 2.699l120.988 91.103c2.4 1.8 3.9 3.9 5.099 6.601z" fill="#68d9c0" data-original="#68d9c0"></path><path d="m511.688 108.999-30.388 147.001-41.513 30-62.886-30v-.3l29.099-101.4 105.087-53.7c.901 2.699 1.201 5.4.601 8.399z" fill="#36b3b3" data-original="#36b3b3" class=""></path><path d="m256 30.399 30 53.9-30 46.599-90-24.898-32.999-105.803c2.098-.3 4.499-.3 6.599.298z" fill="#4fc6b9" data-original="#4fc6b9"></path><path d="m256 256v125.099l-46.037 42.738-43.963-17.837h-37.267l-22.733-48.3-14.192-55.249 43.291-46.451z" fill="#80ecc6" data-original="#80ecc6" class=""></path></g></g><path d="m166 406 13.968 50.865-46.968 54.938c-2.1-.3-4.2-1.5-6-2.701l-120.987-91.103c-2.401-1.8-3.9-3.9-5.099-6.599l29.727-60.3 75.359 6.6z" fill="#4fc6b9" data-original="#4fc6b9"></path><path d="m256 381.099 30 55.643-30 44.856-116.4 29.904c-2.1.601-4.501.601-6.599.3l32.999-105.802z" fill="#68d9c0" data-original="#68d9c0"></path><path d="m135.099 256-29.099 101.7-105.087 53.7c-.901-2.701-1.201-5.4-.601-8.401l30.388-146.999 54.211-30z" fill="#68d9c0" data-original="#68d9c0"></path><path d="m378.999.197-32.999 105.803-90 24.899v-100.5l116.4-29.903c2.1-.599 4.501-.599 6.599-.299z" fill="#36b3b3" data-original="#36b3b3" class=""></path><g fill="#4fc6b9"><path d="m511.688 402.999c.601 3.001.3 5.7-.601 8.401l-105.087-53.7-29.099-101.7h104.399z" fill="#4fc6b9" data-original="#4fc6b9"></path><path d="m380.799 511.099c-1.499.601-3.299.901-4.799.901l-120-30.401v-100.5l90 24.901z" fill="#4fc6b9" data-original="#4fc6b9"></path><path d="m135.099 255.7v.3h-104.399l-30.388-147.001c-.601-2.999-.3-5.7.601-8.399l105.087 53.7z" fill="#4fc6b9" data-original="#4fc6b9"></path></g></g></g></svg>