<svg xmlns="http://www.w3.org/2000/svg" version="1.1" xmlns:xlink="http://www.w3.org/1999/xlink" xmlns:svgjs="http://svgjs.com/svgjs" width="512" height="512" x="0" y="0" viewBox="0 0 512 512" style="enable-background:new 0 0 512 512" xml:space="preserve" class=""><g><g xmlns="http://www.w3.org/2000/svg"><path d="m256 406c-55.986 0-93.413-7.778-117.759-24.463-32.241-21.138-32.241-52.251-32.241-65.537 0-21.826 6.812-46.523 20.259-73.418 11.426-22.5 26.895-45.776 44.81-67.485 23.438-29.062 50.259-52.91 71.528-63.53l13.403-6.695 13.403 6.694c21.27 10.62 48.091 34.468 71.748 63.794 17.695 21.445 33.164 44.722 44.502 67.061 13.535 27.056 20.347 51.753 20.347 73.579 0 13.286 0 44.399-32.754 65.874-23.833 16.348-61.26 24.126-117.246 24.126z" fill="#eaff80" data-original="#eaff80"></path><path d="m373.246 381.874c32.754-21.475 32.754-52.588 32.754-65.874 0-21.826-6.812-46.523-20.347-73.579-11.338-22.339-26.807-45.615-44.502-67.061-23.657-29.326-50.479-53.174-71.748-63.794l-13.403-6.694v301.128c55.986 0 93.413-7.778 117.246-24.126z" fill="#b8e65c" data-original="#b8e65c"></path><g id="Gem_41_"><g fill="#8fcc52"><path d="m155.2 356.8-19.2 79.2-77.4 17.4c-37.801-32.4-58.6-78.601-58.6-137.4 0-19.501 3.999-39.901 9.401-60l75.6-30 68.1 30c-10.501 21-17.1 41.7-17.1 60-.001 11.4-.001 28.2 19.199 40.8z" fill="#8fcc52" data-original="#8fcc52" class=""></path><path d="m453.401 453.399c-42.9 37.8-109.802 58.601-197.401 58.601l-30-58.601 30-77.399c54.901 0 84.6-8.101 100.8-19.2l79.201 19.2z" fill="#8fcc52" data-original="#8fcc52" class=""></path><path d="m502.599 256-68.699 30-75-30c-10.8-21.301-25.499-42.9-41.1-61.8l12.693-72.693 83.608-23.608c40.199 45.301 73.798 101.701 88.498 158.101z" fill="#8fcc52" data-original="#8fcc52" class=""></path><path d="m256 0 30 75.938-30 62.461c-16.8 8.401-40.499 29.401-61.8 55.801l-81.665-21.665-14.636-74.636c50.102-57.299 110.7-97.899 158.101-97.899z" fill="#8fcc52" data-original="#8fcc52" class=""></path></g></g><path d="m194.2 194.2c-15.601 18.9-30.3 40.499-41.1 61.8h-143.699c14.7-56.4 48.3-112.8 88.499-158.101z" fill="#b8e65c" data-original="#b8e65c"></path><path d="m414.101 97.899-96.301 96.301c-21.301-26.4-45-47.401-61.8-55.801v-138.399c47.401 0 107.999 40.6 158.101 97.899z" fill="#6cb348" data-original="#6cb348"></path><path d="m512 316c0 58.799-20.799 105-58.599 137.399l-96.601-96.599c19.2-12.6 19.2-29.4 19.2-40.8 0-18.3-6.599-39-17.1-60h143.699c5.402 20.099 9.401 40.499 9.401 60z" fill="#6cb348" data-original="#6cb348"></path><path d="m256 376v136c-87.599 0-154.501-20.801-197.401-58.601l96.601-96.599c16.2 11.099 45.899 19.2 100.8 19.2z" fill="#b8e65c" data-original="#b8e65c"></path></g></g></svg>