<svg xmlns="http://www.w3.org/2000/svg" version="1.1" xmlns:xlink="http://www.w3.org/1999/xlink" xmlns:svgjs="http://svgjs.com/svgjs" width="512" height="512" x="0" y="0" viewBox="0 0 512 512" style="enable-background:new 0 0 512 512" xml:space="preserve" class=""><g><g xmlns="http://www.w3.org/2000/svg"><path d="m346 257-7.412 150-56.188 105h-52.8l-56.188-105-7.412-150 90-30z" fill="#eabfff" data-original="#eabfff"></path><path d="m282.4 512 56.188-105 7.412-150-90-30v285z" fill="#cb99ff" data-original="#cb99ff"></path><path d="m346 257h-180l14.302-125.376 75.698-131.624 75.698 131.626z" fill="#cb99ff" data-original="#cb99ff"></path><g id="Gem_13_"><g><path d="m481 257c0 2.1-.601 4.499-1.5 6.599l-120 240c-2.7 5.101-7.8 8.401-13.5 8.401h-63.6l63.6-255 60.149-30z" fill="#b58dff" data-original="#b58dff" class=""></path><path d="m229.6 512h-63.6c-5.7 0-10.8-3.3-13.5-8.401l-120-240c-.899-2.1-1.5-4.499-1.5-6.599l69.06-30 65.94 30z" fill="#cb99ff" data-original="#cb99ff"></path></g></g><path d="m256 0-90 257h-135c0-3.6 1.199-7.2 3.6-9.901l210-242.3c2.999-3.299 7.2-4.799 11.4-4.799z" fill="#b58dff" data-original="#b58dff" class=""></path><path d="m346 257-14.302-125.374-75.698-131.626v257z" fill="#b58dff" data-original="#b58dff" class=""></path><path d="m481 257h-135l-90-257c4.2 0 8.401 1.5 11.4 4.799l210 242.3c2.401 2.701 3.6 6.301 3.6 9.901z" fill="#a080ff" data-original="#a080ff" class=""></path></g></g></svg>