<svg xmlns="http://www.w3.org/2000/svg" version="1.1" xmlns:xlink="http://www.w3.org/1999/xlink" xmlns:svgjs="http://svgjs.com/svgjs" width="512" height="512" x="0" y="0" viewBox="0 0 512 512" style="enable-background:new 0 0 512 512" xml:space="preserve" class=""><g><g xmlns="http://www.w3.org/2000/svg"><path d="m193.773 407h-88.773v-88.773l-62.227-62.227 62.227-63.227v-87.773h88.773l62.227-62.227 62.227 62.227h88.773v87.773l62.227 63.227-62.227 62.227v88.773h-88.773l-62.227 62.227z" fill="#fff480" data-original="#fff480"></path><path d="m318.227 407h88.773v-88.773l62.227-62.227-62.227-63.227v-87.773h-88.773l-62.227-62.227v426.454z" fill="#ffe566" data-original="#ffe566" class=""></path><g id="Gem_29_"><g fill="#ffc24d"><path d="m135 305.799v71.201 60l-60.3.3-70.199-70.201c-3.001-2.999-4.501-6.599-4.501-10.799v-100.3l42.773-30 42.427 30z" fill="#ffc24d" data-original="#ffc24d" class=""></path><path d="m437.3 437.3-70.201 70.199c-2.999 3.001-6.599 4.501-10.799 4.501h-100.3l-30-42.773 30-42.427 49.799-49.8h71.201 60z" fill="#ffc24d" data-original="#ffc24d" class=""></path><path d="m512 155.7v100.3l-42.773 30-42.427-30-49.8-49.801v-71.199-60l60.3-.3 70.199 70.199c3.001 3.001 4.501 6.601 4.501 10.801z" fill="#ffc24d" data-original="#ffc24d" class=""></path><path d="m256 0 30 42.774-30 42.425-49.799 49.801h-71.201-60l-.3-60.3 70.201-70.201c2.999-2.999 6.599-4.499 10.799-4.499z" fill="#ffc24d" data-original="#ffc24d" class=""></path></g></g><path d="m135 135v71.199l-49.799 49.801h-85.201v-100.3c0-4.2 1.5-7.8 4.501-10.801l70.199-70.199z" fill="#ffe566" data-original="#ffe566" class=""></path><path d="m437.3 74.7-60.3 60.3h-71.201l-49.799-49.801v-85.199h100.3c4.2 0 7.8 1.5 10.8 4.499z" fill="#ff9833" data-original="#ff9833"></path><path d="m256 426.799v85.201h-100.3c-4.2 0-7.8-1.5-10.8-4.501l-70.2-70.199 60.3-60.3h71.201z" fill="#ffe566" data-original="#ffe566" class=""></path><path d="m512 256v100.3c0 4.2-1.5 7.8-4.501 10.8l-70.199 70.2-60.3-60.3v-71.201l49.799-49.799z" fill="#ff9833" data-original="#ff9833"></path></g></g></svg>