<svg xmlns="http://www.w3.org/2000/svg" version="1.1" xmlns:xlink="http://www.w3.org/1999/xlink" xmlns:svgjs="http://svgjs.com/svgjs" width="512" height="512" x="0" y="0" viewBox="0 0 512 512" style="enable-background:new 0 0 512 512" xml:space="preserve" class=""><g><g xmlns="http://www.w3.org/2000/svg"><path d="m213.578 436-137.578-137.578v-84.844l137.578-137.578h84.844l137.578 137.578v84.844l-137.578 137.578z" fill="#eabfff" data-original="#eabfff" class=""></path><path d="m256 76v360h42.422l137.578-137.578v-84.844l-137.578-137.578z" fill="#cb99ff" data-original="#cb99ff" class=""></path><g id="Gem_17_"><g><path d="m226 406 12.45 53.5-47.249 51.599c-2.1-.599-4.2-1.8-5.7-3.6l-181-181c-1.8-1.5-3.001-3.6-3.6-5.7l52.599-47.249 52.5 12.45z" fill="#cb99ff" data-original="#cb99ff" class=""></path><path d="m511.099 320.799c-.599 2.1-1.8 4.2-3.6 5.7l-181 181c-1.5 1.8-3.6 3.001-5.7 3.6l-47.249-51.599 12.45-53.5 120-120 52.502-12.449z" fill="#b58dff" data-original="#b58dff" class=""></path><path d="m511.099 191.201-52.599 47.249-52.5-12.45-120-120-12.45-52.5 47.249-52.599c2.1.599 4.2 1.8 5.7 3.6l181 181c1.8 1.499 3.001 3.6 3.6 5.7z" fill="#b58dff" data-original="#b58dff" class=""></path><path d="m226 106-120 120-47.304 14.187-57.795-48.986c.599-2.1 1.8-4.2 3.6-5.7l181-181c1.5-1.8 3.6-3.001 5.7-3.6l48.957 57.709z" fill="#cb99ff" data-original="#cb99ff" class=""></path></g></g><path d="m106 226v60l-105.099 34.799c-.601-1.499-.901-3.299-.901-4.799v-120c0-1.5.3-3.3.901-4.799z" fill="#b58dff" data-original="#b58dff" class=""></path><path d="m320.799.901-34.799 105.099h-60l-34.799-105.099c1.499-.601 3.299-.901 4.799-.901h120c1.5 0 3.3.3 4.799.901z" fill="#b58dff" data-original="#b58dff" class=""></path><path d="m512 196v120c0 1.5-.3 3.3-.901 4.799l-105.099-34.799v-60l105.099-34.799c.601 1.499.901 3.299.901 4.799z" fill="#8a73ff" data-original="#8a73ff"></path><path d="m320.799 511.099c-1.499.601-3.299.901-4.799.901h-120c-1.5 0-3.3-.3-4.799-.901l34.799-105.099h60z" fill="#b58dff" data-original="#b58dff" class=""></path><g fill="#8a73ff"><path d="m256 406v106h60c1.5 0 3.3-.3 4.799-.901l-34.799-105.099z" fill="#8a73ff" data-original="#8a73ff"></path><path d="m256 0v106h30l34.799-105.099c-1.499-.601-3.299-.901-4.799-.901z" fill="#8a73ff" data-original="#8a73ff"></path></g></g></g></svg>