<svg xmlns="http://www.w3.org/2000/svg" version="1.1" xmlns:xlink="http://www.w3.org/1999/xlink" xmlns:svgjs="http://svgjs.com/svgjs" width="512" height="512" x="0" y="0" viewBox="0 0 512 512" style="enable-background:new 0 0 512 512" xml:space="preserve" class=""><g><g xmlns="http://www.w3.org/2000/svg"><path d="m165.883 346.117-31.685-90.117 31.685-90.132 90.117-31.67 90.117 31.67 31.685 90.132-31.685 90.117-90.117 31.685z" fill="#eabfff" data-original="#eabfff"></path><path d="m346.117 346.117 31.685-90.117-31.685-90.132-90.117-31.67v243.604z" fill="#cb99ff" data-original="#cb99ff" class=""></path><g><path d="m189.401 189.399-94.2 3.3-95.201 63.301 95.2 63.3 94.2 3.3-23.4-66.6z" fill="#a080ff" data-original="#a080ff" class=""></path><path d="m189.401 322.599-9.6 69.6-54.3-5.7-121-120c-3.001-2.699-4.501-6.599-4.501-10.499z" fill="#b58dff" data-original="#b58dff" class=""></path></g><path d="m322.599 322.599 23.401-66.599-23.401-66.601 94.201 3.301 95.2 63.3-95.2 63.3z" fill="#8a73ff" data-original="#8a73ff" class=""></path><path d="m322.599 322.599-3.299 94.201-63.3 95.2-63.3-95.2-3.299-94.201 66.599 23.401z" fill="#cb99ff" data-original="#cb99ff" class=""></path><path d="m322.599 189.399-66.599-23.399-66.599 23.399 3.299-94.199 63.3-95.2 63.3 95.2z" fill="#cb99ff" data-original="#cb99ff" class=""></path><g fill="#a080ff"><path d="m256 0-66.599 189.399-61.877-1.877-2.023-62.023 120-121c2.699-2.999 6.599-4.499 10.499-4.499z" fill="#a080ff" data-original="#a080ff" class=""></path><path d="m256 512c-3.9 0-7.8-1.5-10.499-4.501l-120-121 63.9-63.9z" fill="#a080ff" data-original="#a080ff" class=""></path><path d="m512 256-189.401-66.601.942-60.942 62.959-2.959 121 120c3 2.702 4.5 6.602 4.5 10.502z" fill="#a080ff" data-original="#a080ff" class=""></path></g><path d="m189.401 189.399-189.401 66.601c0-3.9 1.5-7.8 4.501-10.501l121-120z" fill="#b58dff" data-original="#b58dff" class=""></path><path d="m319.3 416.8 3.299-94.201-66.599 23.401v166z" fill="#b58dff" data-original="#b58dff" class=""></path><path d="m322.599 189.399-3.299-94.2-63.3-95.199v166z" fill="#b58dff" data-original="#b58dff" class=""></path><path d="m386.499 125.499-63.9 63.9-66.599-189.399c3.9 0 7.8 1.5 10.499 4.499z" fill="#8a73ff" data-original="#8a73ff" class=""></path><path d="m386.499 386.499-120 121c-2.699 3.001-6.599 4.501-10.499 4.501l66.599-189.401 63.082 3.082z" fill="#8a73ff" data-original="#8a73ff" class=""></path><path d="m512 256c0 3.9-1.5 7.8-4.501 10.499l-121 120-63.9-63.9z" fill="#a080ff" data-original="#a080ff" class=""></path></g></g></svg>