<?xml version="1.0" encoding="utf-8"?><svg xmlns="http://www.w3.org/2000/svg" xmlns:xlink="http://www.w3.org/1999/xlink">
    <symbol stroke-width="2" stroke-linecap="round" stroke-linejoin="round" class="afeather afeather-plus" viewBox="0 0 24 24" id="add" xmlns="http://www.w3.org/2000/svg">
        <path d="M12 5v14m-7-7h14" />
    </symbol>
    <symbol viewBox="0 0 23 22" id="ads" xmlns="http://www.w3.org/2000/svg">
        <path d="M1.5 11.41V6.84c0-1.19.73-2.25 1.84-2.67l7.94-3a1.9 1.9 0 012.57 1.78v3.8M6 11h7m4.04 1.55c-.42.41-.66 1-.6 1.63.09 1.08 1.08 1.87 2.16 1.87h1.9v1.19c0 2.07-1.69 3.76-3.76 3.76H5.26c-2.07 0-3.76-1.69-3.76-3.76v-6.73c0-2.07 1.69-3.76 3.76-3.76h11.48c2.07 0 3.76 1.69 3.76 3.76v1.44h-2.02c-.56 0-1.07.22-1.44.6zm4.519.42v2.06c0 .55-.44 1-1 1.02h-1.96c-1.08 0-2.07-.79-2.16-1.87-.06-.63.18-1.22.6-1.63.37-.38.88-.6 1.44-.6h2.08c.56.02 1 .47 1 1.02z" />
    </symbol>
    <symbol viewBox="0 0 20 22" id="bell" xmlns="http://www.w3.org/2000/svg">
        <path d="M12.389 19.857c-1.364 1.515-3.492 1.533-4.87 0M10 16.847c5.64 0 8.248-.723 8.5-3.627 0-2.901-1.819-2.715-1.819-6.275C16.681 4.165 14.045 1 10 1S3.319 4.164 3.319 6.945c0 3.56-1.819 3.374-1.819 6.275.253 2.915 2.862 3.628 8.5 3.628z" />
    </symbol>
    <symbol viewBox="0 0 16 16" id="circle" xmlns="http://www.w3.org/2000/svg">
        <path d="M8 13.25a5.25 5.25 0 100-10.5 5.25 5.25 0 000 10.5z" />
    </symbol>
    <symbol viewBox="0 0 24 24" id="delete" xmlns="http://www.w3.org/2000/svg">
        <g>
            <path fill="none" d="M0 0h24v24H0z" />
            <path d="M17 6h5v2h-2v13a1 1 0 0 1-1 1H5a1 1 0 0 1-1-1V8H2V6h5V3a1 1 0 0 1 1-1h8a1 1 0 0 1 1 1v3zm1 2H6v12h12V8zm-9 3h2v6H9v-6zm4 0h2v6h-2v-6zM9 4v2h6V4H9z" />
        </g>
    </symbol>
    <symbol viewBox="0 0 320 512" id="up" xmlns="http://www.w3.org/2000/svg">
        <!--! Font Awesome Pro 6.1.1 by @fontawesome - https://fontawesome.com License - https://fontawesome.com/license (Commercial License) Copyright 2022 Fonticons, Inc.-->
        <path d="M9.39 265.4l127.1-128c7.11-6.3 15.31-9.4 23.51-9.4s16.38 3.125 22.63 9.375l127.1 128c9.156 9.156 11.9 22.91 6.943 34.88S300.9 320 287.1 320H32.01c-12.94 0-24.62-7.781-29.58-19.75S.233 274.5 9.39 265.4z" />
    </symbol>
    <symbol viewBox="0 0 24 24" id="slider">
        <g>
            <path fill="none" d="M0 0h24v24H0z" />
            <path d="M13 21v2h-2v-2H3a1 1 0 0 1-1-1V6h20v14a1 1 0 0 1-1 1h-8zm-9-2h16V8H4v11zm9-9h5v2h-5v-2zm0 4h5v2h-5v-2zm-4-4v3h3a3 3 0 1 1-3-3zM2 3h20v2H2V3z" />
        </g>
    </symbol>
    <symbol viewBox="0 0 24 24" id="request">
        <g>
            <path fill="none" d="M0 0h24v24H0z" />
            <path fill-rule="nonzero" d="M5 12.5c0 .313.461.858 1.53 1.393C7.914 14.585 9.877 15 12 15c2.123 0 4.086-.415 5.47-1.107 1.069-.535 1.53-1.08 1.53-1.393v-2.171C17.35 11.349 14.827 12 12 12s-5.35-.652-7-1.671V12.5zm14 2.829C17.35 16.349 14.827 17 12 17s-5.35-.652-7-1.671V17.5c0 .313.461.858 1.53 1.393C7.914 19.585 9.877 20 12 20c2.123 0 4.086-.415 5.47-1.107 1.069-.535 1.53-1.08 1.53-1.393v-2.171zM3 17.5v-10C3 5.015 7.03 3 12 3s9 2.015 9 4.5v10c0 2.485-4.03 4.5-9 4.5s-9-2.015-9-4.5zm9-7.5c2.123 0 4.086-.415 5.47-1.107C18.539 8.358 19 7.813 19 7.5c0-.313-.461-.858-1.53-1.393C16.086 5.415 14.123 5 12 5c-2.123 0-4.086.415-5.47 1.107C5.461 6.642 5 7.187 5 7.5c0 .313.461.858 1.53 1.393C7.914 9.585 9.877 10 12 10z" />
        </g>
    </symbol>
    <symbol viewBox="0 0 22 22" id="earth" xmlns="http://www.w3.org/2000/svg">
        <path d="M21 11c0-5.52-4.48-10-10-10S1 5.48 1 11s4.48 10 10 10M7 2h1a28.424 28.424 0 000 18H7m7-18c.97 2.92 1.46 5.96 1.46 9M2 15v-1c2.92.97 5.96 1.46 9 1.46M2 8a28.424 28.424 0 0118 0" />
    </symbol>
    <symbol viewBox="0 0 24 24" id="edit" xmlns="http://www.w3.org/2000/svg">
        <path d="M16.989778,15.9532516 C17.5468857,15.9532516 18,16.412265 18,16.9766258 C18,17.5420615 17.5468857,18 16.989778,18 L16.989778,18 L11.2796888,18 C10.7225811,18 10.2694668,17.5420615 10.2694668,16.9766258 C10.2694668,16.412265 10.7225811,15.9532516 11.2796888,15.9532516 L11.2796888,15.9532516 Z M13.0298561,0.699063657 L14.5048652,1.87078412 C15.109725,2.34377219 15.5129649,2.96725648 15.6509154,3.62298994 C15.810089,4.34429676 15.6403038,5.0527039 15.1627829,5.66543845 L6.37639783,17.027902 C5.97315794,17.543889 5.37890967,17.8341317 4.74221511,17.8448814 L1.24039498,17.8878803 C1.04938661,17.8878803 0.890212963,17.7588836 0.847766658,17.5761382 L0.051898447,14.1254752 C-0.086052043,13.4912412 0.051898447,12.8355077 0.455138341,12.3302704 L6.68413354,4.26797368 C6.7902493,4.13897694 6.98125767,4.11855245 7.10859659,4.21422504 L9.7296559,6.29967247 C9.89944111,6.43941894 10.1328958,6.51466705 10.376962,6.48241786 C10.8969293,6.41791948 11.2471113,5.94493141 11.1940534,5.43969415 C11.1622187,5.18170065 11.0348798,4.96670607 10.8650945,4.80546013 C10.8120367,4.76246122 8.31831627,2.76301162 8.31831627,2.76301162 C8.15914263,2.63401488 8.1273079,2.39752084 8.25464681,2.23734988 L9.24152339,0.957057153 C10.1541189,-0.214663308 11.7458554,-0.322160598 13.0298561,0.699063657 Z"></path>
    </symbol>
    <symbol viewBox="0 0 24 24" id="filter" xmlns="http://www.w3.org/2000/svg">
        <path d="M4.565 3C3.701 3 3 3.713 3 4.59v.936c0 .65.247 1.276.69 1.746l4.845 5.152.002-.003A5.157 5.157 0 0110 16.023v4.572c0 .306.32.5.585.357l2.76-1.504a1.31 1.31 0 00.676-1.15v-2.287c0-1.342.519-2.631 1.446-3.587l4.846-5.152c.44-.47.688-1.096.688-1.746V4.59C21 3.713 20.3 3 19.436 3H4.566z" fill-rule="evenodd" />
    </symbol>
    <symbol viewBox="0 0 24 24" stroke-width="2" stroke-linecap="round" stroke-linejoin="round" class="jfeather jfeather-maximize" id="full" xmlns="http://www.w3.org/2000/svg">
        <path d="M8 3H5a2 2 0 00-2 2v3m18 0V5a2 2 0 00-2-2h-3m0 18h3a2 2 0 002-2v-3M3 16v3a2 2 0 002 2h3" />
    </symbol>
    <symbol id="home" viewBox="0 0 576 512">
        <path d="M575.8 255.5C575.8 273.5 560.8 287.6 543.8 287.6H511.8L512.5 447.7C512.6 483.2 483.9 512 448.5 512H128.1C92.75 512 64.09 483.3 64.09 448V287.6H32.05C14.02 287.6 0 273.5 0 255.5C0 246.5 3.004 238.5 10.01 231.5L266.4 8.016C273.4 1.002 281.4 0 288.4 0C295.4 0 303.4 2.004 309.5 7.014L416 100.7V64C416 46.33 430.3 32 448 32H480C497.7 32 512 46.33 512 64V185L564.8 231.5C572.8 238.5 576.9 246.5 575.8 255.5L575.8 255.5zM248 192C234.7 192 224 202.7 224 216V296C224 309.3 234.7 320 248 320H328C341.3 320 352 309.3 352 296V216C352 202.7 341.3 192 328 192H248z"></path>
    </symbol>
    <symbol viewBox="0 0 20 20" id="inbox" xmlns="http://www.w3.org/2000/svg">
        <path d="M13.832 6.175L8.11 11.959 1.6 7.888c-.932-.584-.738-2 .317-2.31L17.37 1.054c.966-.283 1.862.62 1.575 1.589l-4.573 15.445c-.313 1.056-1.722 1.245-2.3.308L8.106 11.96" />
    </symbol>
    <symbol viewBox="0 0 24 24" id="movie">
        <g>
            <path fill="none" d="M0 0h24v24H0z" />
            <path d="M5.998 7l2.31-4h3.69l-2.31 4h-3.69zm6 0l2.31-4h3.69l-2.31 4h-3.69zm6 0l2.31-4h.7c.548 0 .992.445.992.993v16.014a1 1 0 0 1-.992.993H2.992A.993.993 0 0 1 2 20.007V3.993A1 1 0 0 1 2.992 3h3.006L4 6.46V19h16V7h-2.002z" />
        </g>
    </symbol>
    <symbol stroke-width="2" stroke-linecap="round" stroke-linejoin="round" class="nfeather nfeather-menu" viewBox="0 0 24 24" id="menu" xmlns="http://www.w3.org/2000/svg">
        <path d="M3 12h18M3 6h18M3 18h18" />
    </symbol>
    <symbol stroke-width="2" stroke-linecap="round" stroke-linejoin="round" class="ofeather ofeather-more-vertical" viewBox="0 0 24 24" id="more" xmlns="http://www.w3.org/2000/svg">
        <circle cx="12" cy="12" r="1" />
        <circle cx="12" cy="5" r="1" />
        <circle cx="12" cy="19" r="1" />
    </symbol>
    <symbol viewBox="0 0 24 24" id="search" xmlns="http://www.w3.org/2000/svg">
        <circle cx="11.767" cy="11.767" r="8.989" />
        <path d="M18.018 18.485L21.542 22" />
    </symbol>
    <symbol xmlns="http://www.w3.org/2000/svg" id="movie" viewBox="0 0 24 24">
        <path d="M21,2a1,1,0,0,0-1,1V5H18V3a1,1,0,0,0-2,0V4H8V3A1,1,0,0,0,6,3V5H4V3A1,1,0,0,0,2,3V21a1,1,0,0,0,2,0V19H6v2a1,1,0,0,0,2,0V20h8v1a1,1,0,0,0,2,0V19h2v2a1,1,0,0,0,2,0V3A1,1,0,0,0,21,2ZM6,17H4V15H6Zm0-4H4V11H6ZM6,9H4V7H6Zm10,9H8V13h8Zm0-7H8V6h8Zm4,6H18V15h2Zm0-4H18V11h2Zm0-4H18V7h2Z" />
    </symbol>
    <symbol viewBox="0 0 24 24" id="people">
        <g>
            <path fill="none" d="M0 0h24v24H0z" />
            <path d="M12 7a8 8 0 1 1 0 16 8 8 0 0 1 0-16zm0 3.5l-1.323 2.68-2.957.43 2.14 2.085-.505 2.946L12 17.25l2.645 1.39-.505-2.945 2.14-2.086-2.957-.43L12 10.5zm1-8.501L18 2v3l-1.363 1.138A9.935 9.935 0 0 0 13 5.049L13 2zm-2 0v3.05a9.935 9.935 0 0 0-3.636 1.088L6 5V2l5-.001z" />
        </g>
    </symbol>
    <symbol viewBox="0 0 24 24" id="comment">
        <g>
            <path fill="none" d="M0 0h24v24H0z" />
            <path d="M10 3h4a8 8 0 1 1 0 16v3.5c-5-2-12-5-12-11.5a8 8 0 0 1 8-8zm2 14h2a6 6 0 1 0 0-12h-4a6 6 0 0 0-6 6c0 3.61 2.462 5.966 8 8.48V17z" />
        </g>
    </symbol>
    <symbol viewBox="0 0 24 24" id="dashboard">
        <g>
            <path fill="none" d="M0 0H24V24H0z" />
            <path d="M12 2c5.523 0 10 4.477 10 10s-4.477 10-10 10S2 17.523 2 12 6.477 2 12 2zm0 2c-4.418 0-8 3.582-8 8s3.582 8 8 8 8-3.582 8-8-3.582-8-8-8zm3.833 3.337c.237-.166.559-.138.763.067.204.204.23.526.063.76-2.18 3.046-3.38 4.678-3.598 4.897-.586.585-1.536.585-2.122 0-.585-.586-.585-1.536 0-2.122.374-.373 2.005-1.574 4.894-3.602zM17.5 11c.552 0 1 .448 1 1s-.448 1-1 1-1-.448-1-1 .448-1 1-1zm-11 0c.552 0 1 .448 1 1s-.448 1-1 1-1-.448-1-1 .448-1 1-1zm2.318-3.596c.39.39.39 1.023 0 1.414-.39.39-1.024.39-1.414 0-.39-.39-.39-1.024 0-1.414.39-.39 1.023-.39 1.414 0zM12 5.5c.552 0 1 .448 1 1s-.448 1-1 1-1-.448-1-1 .448-1 1-1z" />
        </g>
    </symbol>
    <symbol viewBox="0 0 24 24" id="genre">
        <g>
            <path fill="none" d="M0 0h24v24H0z" />
            <path d="M3 2.992C3 2.444 3.445 2 3.993 2h16.014a1 1 0 0 1 .993.992v18.016a.993.993 0 0 1-.993.992H3.993A1 1 0 0 1 3 21.008V2.992zM19 11V4H5v7h14zm0 2H5v7h14v-7zM9 6h6v2H9V6zm0 9h6v2H9v-2z" />
        </g>
    </symbol>
    <symbol viewBox="0 0 24 24" id="settings" xmlns="http://www.w3.org/2000/svg">
        <g>
            <path fill="none" d="M0 0h24v24H0z" />
            <path d="M3.34 17a10.018 10.018 0 0 1-.978-2.326 3 3 0 0 0 .002-5.347A9.99 9.99 0 0 1 4.865 4.99a3 3 0 0 0 4.631-2.674 9.99 9.99 0 0 1 5.007.002 3 3 0 0 0 4.632 2.672c.579.59 1.093 1.261 1.525 2.01.433.749.757 1.53.978 2.326a3 3 0 0 0-.002 5.347 9.99 9.99 0 0 1-2.501 4.337 3 3 0 0 0-4.631 2.674 9.99 9.99 0 0 1-5.007-.002 3 3 0 0 0-4.632-2.672A10.018 10.018 0 0 1 3.34 17zm5.66.196a4.993 4.993 0 0 1 2.25 2.77c.499.047 1 .048 1.499.001A4.993 4.993 0 0 1 15 17.197a4.993 4.993 0 0 1 3.525-.565c.29-.408.54-.843.748-1.298A4.993 4.993 0 0 1 18 12c0-1.26.47-2.437 1.273-3.334a8.126 8.126 0 0 0-.75-1.298A4.993 4.993 0 0 1 15 6.804a4.993 4.993 0 0 1-2.25-2.77c-.499-.047-1-.048-1.499-.001A4.993 4.993 0 0 1 9 6.803a4.993 4.993 0 0 1-3.525.565 7.99 7.99 0 0 0-.748 1.298A4.993 4.993 0 0 1 6 12c0 1.26-.47 2.437-1.273 3.334a8.126 8.126 0 0 0 .75 1.298A4.993 4.993 0 0 1 9 17.196zM12 15a3 3 0 1 1 0-6 3 3 0 0 1 0 6zm0-2a1 1 0 1 0 0-2 1 1 0 0 0 0 2z" />
        </g>
    </symbol>
    <symbol viewBox="0 0 22 22" id="stat" xmlns="http://www.w3.org/2000/svg">
        <path d="M19 13.7a9.091 9.091 0 01-10.42 7.17c-3.79-.61-6.84-3.66-7.46-7.45A9.1 9.1 0 018.26 3.01M17.32 11c2.6 0 3.68-1 2.72-4.28-.65-2.21-2.55-4.11-4.76-4.76C12 1 11 2.08 11 4.68v2.88C11 10 12 11 14 11h3.32z" />
    </symbol>
    <symbol stroke-width="2" stroke-linecap="round" stroke-linejoin="round" class="tfeather tfeather-upload" viewBox="0 0 24 24" id="upload" xmlns="http://www.w3.org/2000/svg">
        <path d="M21 15v4a2 2 0 01-2 2H5a2 2 0 01-2-2v-4m14-7l-5-5-5 5m5-5v12" />
    </symbol>
    <symbol viewBox="0 0 24 24" id="discussion" xmlns="http://www.w3.org/2000/svg">
        <g>
            <path fill="none" d="M0 0h24v24H0z" />
            <path d="M3 17h18v2H3v-2zm0-6h3v3H3v-3zm5 0h3v3H8v-3zM3 5h3v3H3V5zm10 0h3v3h-3V5zm5 0h3v3h-3V5zm-5 6h3v3h-3v-3zm5 0h3v3h-3v-3zM8 5h3v3H8V5z" />
        </g>
    </symbol>
    <symbol viewBox="0 0 24 24" id="report" xmlns="http://www.w3.org/2000/svg">
        <g>
            <path fill="none" d="M0 0h24v24H0z" />
            <path d="M4 20v-6a8 8 0 1 1 16 0v6h1v2H3v-2h1zm2 0h12v-6a6 6 0 1 0-12 0v6zm5-18h2v3h-2V2zm8.778 2.808l1.414 1.414-2.12 2.121-1.415-1.414 2.121-2.121zM2.808 6.222l1.414-1.414 2.121 2.12L4.93 8.344 2.808 6.222zM7 14a5 5 0 0 1 5-5v2a3 3 0 0 0-3 3H7z" />
        </g>
    </symbol>
    <symbol viewBox="0 0 24 24" id="tool" xmlns="http://www.w3.org/2000/svg">
        <g>
            <path fill="none" d="M0 0h24v24H0z" />
            <path d="M5 13c0-5.088 2.903-9.436 7-11.182C16.097 3.564 19 7.912 19 13c0 .823-.076 1.626-.22 2.403l1.94 1.832a.5.5 0 0 1 .095.603l-2.495 4.575a.5.5 0 0 1-.793.114l-2.234-2.234a1 1 0 0 0-.707-.293H9.414a1 1 0 0 0-.707.293l-2.234 2.234a.5.5 0 0 1-.793-.114l-2.495-4.575a.5.5 0 0 1 .095-.603l1.94-1.832C5.077 14.626 5 13.823 5 13zm1.476 6.696l.817-.817A3 3 0 0 1 9.414 18h5.172a3 3 0 0 1 2.121.879l.817.817.982-1.8-1.1-1.04a2 2 0 0 1-.593-1.82c.124-.664.187-1.345.187-2.036 0-3.87-1.995-7.3-5-8.96C8.995 5.7 7 9.13 7 13c0 .691.063 1.372.187 2.037a2 2 0 0 1-.593 1.82l-1.1 1.039.982 1.8zM12 13a2 2 0 1 1 0-4 2 2 0 0 1 0 4z" />
        </g>
    </symbol>
    <symbol viewBox="0 0 24 24" id="user" xmlns="http://www.w3.org/2000/svg">
        <g>
            <path fill="none" d="M0 0h24v24H0z" />
            <path fill-rule="nonzero" d="M12 17c3.662 0 6.865 1.575 8.607 3.925l-1.842.871C17.347 20.116 14.847 19 12 19c-2.847 0-5.347 1.116-6.765 2.796l-1.841-.872C5.136 18.574 8.338 17 12 17zm0-15a5 5 0 0 1 5 5v3a5 5 0 0 1-4.783 4.995L12 15a5 5 0 0 1-5-5V7a5 5 0 0 1 4.783-4.995L12 2zm0 2a3 3 0 0 0-2.995 2.824L9 7v3a3 3 0 0 0 5.995.176L15 10V7a3 3 0 0 0-3-3z" />
        </g>
    </symbol>
    <symbol viewBox="0 0 24 24" id="close" xmlns="http://www.w3.org/2000/svg">
        <line x1="18" y1="6" x2="6" y2="18"></line>
        <line x1="6" y1="6" x2="18" y2="18"></line>
    </symbol>
    <symbol viewBox="0 0 24 24" id="collection" xmlns="http://www.w3.org/2000/svg">
        <g>
            <path fill="none" d="M0 0h24v24H0z" />
            <path d="M12 20a8 8 0 1 0 0-16 8 8 0 0 0 0 16zm0 2C6.477 22 2 17.523 2 12S6.477 2 12 2s10 4.477 10 10-4.477 10-10 10zm0-8a2 2 0 1 0 0-4 2 2 0 0 0 0 4zm0 2a4 4 0 1 1 0-8 4 4 0 0 1 0 8z" />
        </g>
    </symbol>
    <symbol viewBox="0 0 24 24" id="drag" xmlns="http://www.w3.org/2000/svg">
        <path d="M0 0h24v24H0V0z" fill="none" />
        <path d="M11 18c0 1.1-.9 2-2 2s-2-.9-2-2 .9-2 2-2 2 .9 2 2zm-2-8c-1.1 0-2 .9-2 2s.9 2 2 2 2-.9 2-2-.9-2-2-2zm0-6c-1.1 0-2 .9-2 2s.9 2 2 2 2-.9 2-2-.9-2-2-2zm6 4c1.1 0 2-.9 2-2s-.9-2-2-2-2 .9-2 2 .9 2 2 2zm0 2c-1.1 0-2 .9-2 2s.9 2 2 2 2-.9 2-2-.9-2-2-2zm0 6c-1.1 0-2 .9-2 2s.9 2 2 2 2-.9 2-2-.9-2-2-2z" />
    </symbol>
    <symbol viewBox="0 0 24 24" id="image" xmlns="http://www.w3.org/2000/svg">
        <path stroke="none" d="M0 0h24v24H0z" fill="none"></path>
        <line x1="15" y1="8" x2="15.01" y2="8"></line>
        <rect x="4" y="4" width="16" height="16" rx="3"></rect>
        <path d="M4 15l4 -4a3 5 0 0 1 3 0l5 5"></path>
        <path d="M14 14l1 -1a3 5 0 0 1 3 0l2 2"></path>
    </symbol>
    <symbol viewBox="0 0 24 24" id="sorting" xmlns="http://www.w3.org/2000/svg">
        <path d="M0 0h24v24H0V0z" fill="none" />
        <path d="M3 18h6v-2H3v2zM3 6v2h18V6H3zm0 7h12v-2H3v2z" />
    </symbol>
    <symbol viewBox="0 0 24 24" id="chart" xmlns="http://www.w3.org/2000/svg">
        <path fill="none" d="M0 0h24v24H0z" />
        <path d="M3 12h4v9H3v-9zm14-4h4v13h-4V8zm-7-6h4v19h-4V2z" />
    </symbol>
    <symbol viewBox="0 0 24 24" id="tv" xmlns="http://www.w3.org/2000/svg">
        <path fill="none" d="M0 0h24v24H0z" />
        <path d="M2 4c0-.552.455-1 .992-1h18.016c.548 0 .992.445.992 1v14c0 .552-.455 1-.992 1H2.992A.994.994 0 0 1 2 18V4zm2 1v12h16V5H4zm1 15h14v2H5v-2z" />
    </symbol>
    <symbol viewBox="0 0 24 24" id="video" xmlns="http://www.w3.org/2000/svg">
        <path fill="none" d="M0 0h24v24H0z" />
        <path d="M12 22C6.477 22 2 17.523 2 12S6.477 2 12 2s10 4.477 10 10-4.477 10-10 10zm0-2a8 8 0 1 0 0-16 8 8 0 0 0 0 16zM10.622 8.415l4.879 3.252a.4.4 0 0 1 0 .666l-4.88 3.252a.4.4 0 0 1-.621-.332V8.747a.4.4 0 0 1 .622-.332z" />
    </symbol>
    <symbol id="bookmark" viewBox="0 0 640 512">
    <path d="M320 368C320 427.5 349.5 480.1 394.8 512H64C28.65 512 0 483.3 0 448V224C0 188.7 28.65 160 64 160H448C471.8 160 492.5 172.9 503.5 192.2C501 192.1 498.5 192 496 192C398.8 192 320 270.8 320 368zM440 80C453.3 80 464 90.75 464 104C464 117.3 453.3 128 440 128H72C58.75 128 48 117.3 48 104C48 90.75 58.75 80 72 80H440zM392 0C405.3 0 416 10.75 416 24C416 37.25 405.3 48 392 48H120C106.7 48 96 37.25 96 24C96 10.75 106.7 0 120 0H392zM640 368C640 447.5 575.5 512 496 512C416.5 512 352 447.5 352 368C352 288.5 416.5 224 496 224C575.5 224 640 288.5 640 368zM528.6 416H463.4C442.4 416 424.5 429.7 418.3 448.7C438.5 468.1 465.8 480 496 480C526.2 480 553.5 468.1 573.7 448.7C567.5 429.7 549.6 416 528.6 416zM496 288C469.5 288 448 309.5 448 336C448 362.5 469.5 384 496 384C522.5 384 544 362.5 544 336C544 309.5 522.5 288 496 288z"></path>
  </symbol>
  <symbol id="dot-vertical" viewBox="0 0 256 512">
    <path d="M0 96C0 69.49 21.49 48 48 48C74.51 48 96 69.49 96 96C96 122.5 74.51 144 48 144C21.49 144 0 122.5 0 96zM0 256C0 229.5 21.49 208 48 208C74.51 208 96 229.5 96 256C96 282.5 74.51 304 48 304C21.49 304 0 282.5 0 256zM96 416C96 442.5 74.51 464 48 464C21.49 464 0 442.5 0 416C0 389.5 21.49 368 48 368C74.51 368 96 389.5 96 416zM160 96C160 69.49 181.5 48 208 48C234.5 48 256 69.49 256 96C256 122.5 234.5 144 208 144C181.5 144 160 122.5 160 96zM256 256C256 282.5 234.5 304 208 304C181.5 304 160 282.5 160 256C160 229.5 181.5 208 208 208C234.5 208 256 229.5 256 256zM160 416C160 389.5 181.5 368 208 368C234.5 368 256 389.5 256 416C256 442.5 234.5 464 208 464C181.5 464 160 442.5 160 416z"></path>
  </symbol>
    <symbol id="share" viewBox="0 0 512 512">
    <path d="M511.6 36.86l-64 415.1c-1.5 9.734-7.375 18.22-15.97 23.05c-4.844 2.719-10.27 4.097-15.68 4.097c-4.188 0-8.319-.8154-12.29-2.472l-122.6-51.1l-50.86 76.29C226.3 508.5 219.8 512 212.8 512C201.3 512 192 502.7 192 491.2v-96.18c0-7.115 2.372-14.03 6.742-19.64L416 96l-293.7 264.3L19.69 317.5C8.438 312.8 .8125 302.2 .0625 289.1s5.469-23.72 16.06-29.77l448-255.1c10.69-6.109 23.88-5.547 34 1.406S513.5 24.72 511.6 36.86z"></path>
  </symbol><symbol viewBox="0 0 24 24" id="like">
        <path fill="none" d="M0 0h24v24H0z" />
        <path d="M2 9h3v12H2a1 1 0 0 1-1-1V10a1 1 0 0 1 1-1zm5.293-1.293l6.4-6.4a.5.5 0 0 1 .654-.047l.853.64a1.5 1.5 0 0 1 .553 1.57L14.6 8H21a2 2 0 0 1 2 2v2.104a2 2 0 0 1-.15.762l-3.095 7.515a1 1 0 0 1-.925.619H8a1 1 0 0 1-1-1V8.414a1 1 0 0 1 .293-.707z" />
    </symbol>
    <symbol viewBox="0 0 24 24" id="dislike">
        <path fill="none" d="M0 0h24v24H0z" />
        <path d="M22 15h-3V3h3a1 1 0 0 1 1 1v10a1 1 0 0 1-1 1zm-5.293 1.293l-6.4 6.4a.5.5 0 0 1-.654.047L8.8 22.1a1.5 1.5 0 0 1-.553-1.57L9.4 16H3a2 2 0 0 1-2-2v-2.104a2 2 0 0 1 .15-.762L4.246 3.62A1 1 0 0 1 5.17 3H16a1 1 0 0 1 1 1v11.586a1 1 0 0 1-.293.707z" />
    </symbol>
    <symbol viewBox="0 0 24 24" id="vip" xmlns="http://www.w3.org/2000/svg">
        <path fill="none" d="M0 0h24v24H0z" />
        <path d="M3.492 8.065L4.778 19h14.444l1.286-10.935-4.01 2.673L12 4.441l-4.498 6.297-4.01-2.673zM2.801 5.2L7 8l4.186-5.86a1 1 0 0 1 1.628 0L17 8l4.2-2.8a1 1 0 0 1 1.547.95l-1.643 13.967a1 1 0 0 1-.993.883H3.889a1 1 0 0 1-.993-.883L1.253 6.149A1 1 0 0 1 2.8 5.2zM12 15a2 2 0 1 1 0-4 2 2 0 0 1 0 4z" />
    </symbol>
    <symbol viewBox="0 0 24 24" id="play">
        <g>
            <path fill="none" d="M0 0h24v24H0z" />
            <path d="M19.376 12.416L8.777 19.482A.5.5 0 0 1 8 19.066V4.934a.5.5 0 0 1 .777-.416l10.599 7.066a.5.5 0 0 1 0 .832z" />
        </g>
    </symbol>
    <symbol viewBox="0 0 24 24" id="platform">
        <g>
            <path fill="none" d="M0 0h24v24H0z" />
            <path d="M3 3h18a1 1 0 0 1 1 1v16a1 1 0 0 1-1 1H3a1 1 0 0 1-1-1V4a1 1 0 0 1 1-1zm17 8H4v8h16v-8zm0-2V5H4v4h16zm-5-3h4v2h-4V6z" />
        </g>
    </symbol>
    <symbol id="badge-check" viewBox="0 0 576 512">
        <path d="M543.8 256c0-36.5-18.86-68.38-46.86-86.75c6.875-32.88-2.517-68.63-28.14-94.25c-25.62-25.75-61.61-35.13-94.36-28.25C355.1 18.75 324.1 0 287.8 0S219.5 18.75 200.1 46.75C168.1 39.88 132.5 49.38 106.8 75C81.09 100.6 71.61 136.5 78.48 169.3C50.36 187.8 31.84 219.8 31.84 256s18.64 68.25 46.64 86.75C71.61 375.6 81.21 411.4 106.8 437c25.62 25.75 61.14 35.13 94.14 28.25C219.5 493.4 251.6 512 287.8 512c36.38 0 68.14-18.75 86.64-46.75c33 6.875 68.73-2.625 94.36-28.25c25.75-25.62 35.02-61.5 28.14-94.25C525.1 324.3 543.8 292.3 543.8 256zM384.1 216.1l-112 112C268.3 333.7 262.1 336 256 336s-12.28-2.344-16.97-7.031l-48-48c-9.375-9.375-9.375-24.56 0-33.94s24.56-9.375 33.94 0L256 278.1l95.03-95.03c9.375-9.375 24.56-9.375 33.94 0S394.3 207.6 384.1 216.1z"></path>
    </symbol>
    <symbol id="prev" viewBox="0 0 24 24">
        <polyline points="15 18 9 12 15 6"></polyline>
    </symbol>
    <symbol id="next" viewBox="0 0 24 24">
        <polyline points="9 18 15 12 9 6"></polyline>
    </symbol>
    <symbol viewBox="0 0 22 22" id="copy" xmlns="http://www.w3.org/2000/svg">
        <path d="M16 12.4H16.75C16.75 12.2011 16.671 12.0103 16.5303 11.8697L16 12.4ZM9.6 6L10.1303 5.46967C9.98968 5.32902 9.79891 5.25 9.6 5.25V6ZM10.6 0.25C10.1858 0.25 9.85 0.585786 9.85 1C9.85 1.41421 10.1858 1.75 10.6 1.75V0.25ZM14.6 1.75C15.0142 1.75 15.35 1.41421 15.35 1C15.35 0.585786 15.0142 0.25 14.6 0.25V1.75ZM5.25 4C5.25 4.41421 5.58579 4.75 6 4.75C6.41421 4.75 6.75 4.41421 6.75 4H5.25ZM11.62 1.75C12.0342 1.75 12.37 1.41421 12.37 1C12.37 0.585786 12.0342 0.25 11.62 0.25V1.75ZM21 7H21.75C21.75 6.80109 21.671 6.61032 21.5303 6.46967L21 7ZM18.19 15.25C17.7758 15.25 17.44 15.5858 17.44 16C17.44 16.4142 17.7758 16.75 18.19 16.75V15.25ZM15 1L15.5303 0.46967C15.3158 0.255171 14.9932 0.191005 14.713 0.30709C14.4327 0.423176 14.25 0.696653 14.25 1L15 1ZM15.25 12.4V15.4H16.75V12.4H15.25ZM15.25 15.4C15.25 17.326 14.8602 18.4791 14.1697 19.1697C13.4791 19.8602 12.326 20.25 10.4 20.25V21.75C12.474 21.75 14.1209 21.3398 15.2303 20.2303C16.3398 19.1209 16.75 17.474 16.75 15.4H15.25ZM10.4 20.25H6.6V21.75H10.4V20.25ZM6.6 20.25C4.67397 20.25 3.52086 19.8602 2.83033 19.1697C2.1398 18.4791 1.75 17.326 1.75 15.4H0.25C0.25 17.474 0.660201 19.1209 1.76967 20.2303C2.87914 21.3398 4.52603 21.75 6.6 21.75V20.25ZM1.75 15.4V11.6H0.25V15.4H1.75ZM1.75 11.6C1.75 9.67397 2.1398 8.52086 2.83033 7.83033C3.52086 7.1398 4.67397 6.75 6.6 6.75V5.25C4.52603 5.25 2.87914 5.6602 1.76967 6.76967C0.660201 7.87914 0.25 9.52603 0.25 11.6H1.75ZM6.6 6.75H9.6V5.25H6.6V6.75ZM16 11.65H12.8V13.15H16V11.65ZM12.8 11.65C11.6415 11.65 11.1079 11.4472 10.8303 11.1697C10.5528 10.8921 10.35 10.3585 10.35 9.2H8.85C8.85 10.4415 9.04725 11.5079 9.76967 12.2303C10.4921 12.9528 11.5585 13.15 12.8 13.15V11.65ZM10.35 9.2V6H8.85V9.2H10.35ZM9.06967 6.53033L15.4697 12.9303L16.5303 11.8697L10.1303 5.46967L9.06967 6.53033ZM10.6 1.75H14.6V0.25H10.6V1.75ZM6.75 4C6.75 2.75421 7.75421 1.75 9 1.75V0.25C6.92579 0.25 5.25 1.92579 5.25 4H6.75ZM9 1.75H11.62V0.25H9V1.75ZM20.25 7V13.19H21.75V7H20.25ZM20.25 13.19C20.25 14.3258 19.3258 15.25 18.19 15.25V16.75C20.1542 16.75 21.75 15.1542 21.75 13.19H20.25ZM21 6.25H18V7.75H21V6.25ZM18 6.25C16.9165 6.25 16.4329 6.05975 16.1866 5.81342C15.9403 5.56709 15.75 5.08345 15.75 4H14.25C14.25 5.16655 14.4347 6.18291 15.1259 6.87408C15.8171 7.56525 16.8335 7.75 18 7.75V6.25ZM15.75 4V1H14.25V4H15.75ZM14.4697 1.53033L20.4697 7.53033L21.5303 6.46967L15.5303 0.46967L14.4697 1.53033Z" />
    </symbol>
    <symbol id="facebook" viewBox="0 0 512 512">
        <path d="M288,176v-64c0-17.664,14.336-32,32-32h32V0h-64c-53.024,0-96,42.976-96,96v80h-64v80h64v256h96V256h64l32-80H288z" />
    </symbol>
    <symbol id="twitter" viewBox="0 0 512 512">
        <path d="M512,97.248c-19.04,8.352-39.328,13.888-60.48,16.576c21.76-12.992,38.368-33.408,46.176-58.016 c-20.288,12.096-42.688,20.64-66.56,25.408C411.872,60.704,384.416,48,354.464,48c-58.112,0-104.896,47.168-104.896,104.992 c0,8.32,0.704,16.32,2.432,23.936c-87.264-4.256-164.48-46.08-216.352-109.792c-9.056,15.712-14.368,33.696-14.368,53.056 c0,36.352,18.72,68.576,46.624,87.232c-16.864-0.32-33.408-5.216-47.424-12.928c0,0.32,0,0.736,0,1.152 c0,51.008,36.384,93.376,84.096,103.136c-8.544,2.336-17.856,3.456-27.52,3.456c-6.72,0-13.504-0.384-19.872-1.792 c13.6,41.568,52.192,72.128,98.08,73.12c-35.712,27.936-81.056,44.768-130.144,44.768c-8.608,0-16.864-0.384-25.12-1.44 C46.496,446.88,101.6,464,161.024,464c193.152,0,298.752-160,298.752-298.688c0-4.64-0.16-9.12-0.384-13.568 C480.224,136.96,497.728,118.496,512,97.248z" />
    </symbol>
    <symbol id="instagram" viewBox="0 0 169.063 169.063">
        <path d="M122.406,0H46.654C20.929,0,0,20.93,0,46.655v75.752c0,25.726,20.929,46.655,46.654,46.655h75.752 c25.727,0,46.656-20.93,46.656-46.655V46.655C169.063,20.93,148.133,0,122.406,0z M154.063,122.407 c0,17.455-14.201,31.655-31.656,31.655H46.654C29.2,154.063,15,139.862,15,122.407V46.655C15,29.201,29.2,15,46.654,15h75.752 c17.455,0,31.656,14.201,31.656,31.655V122.407z" />
        <path d="M84.531,40.97c-24.021,0-43.563,19.542-43.563,43.563c0,24.02,19.542,43.561,43.563,43.561s43.563-19.541,43.563-43.561 C128.094,60.512,108.552,40.97,84.531,40.97z M84.531,113.093c-15.749,0-28.563-12.812-28.563-28.561 c0-15.75,12.813-28.563,28.563-28.563s28.563,12.813,28.563,28.563C113.094,100.281,100.28,113.093,84.531,113.093z" />
        <path d="M129.921,28.251c-2.89,0-5.729,1.17-7.77,3.22c-2.051,2.04-3.23,4.88-3.23,7.78c0,2.891,1.18,5.73,3.23,7.78 c2.04,2.04,4.88,3.22,7.77,3.22c2.9,0,5.73-1.18,7.78-3.22c2.05-2.05,3.22-4.89,3.22-7.78c0-2.9-1.17-5.74-3.22-7.78 C135.661,29.421,132.821,28.251,129.921,28.251z" />
    </symbol>
    <symbol id="youtube" viewBox="-21 -117 682.66672 682">
        <path d="m626.8125 64.035156c-7.375-27.417968-28.992188-49.03125-56.40625-56.414062-50.082031-13.703125-250.414062-13.703125-250.414062-13.703125s-200.324219 0-250.40625 13.183593c-26.886719 7.375-49.03125 29.519532-56.40625 56.933594-13.179688 50.078125-13.179688 153.933594-13.179688 153.933594s0 104.378906 13.179688 153.933594c7.382812 27.414062 28.992187 49.027344 56.410156 56.410156 50.605468 13.707031 250.410156 13.707031 250.410156 13.707031s200.324219 0 250.40625-13.183593c27.417969-7.378907 49.03125-28.992188 56.414062-56.40625 13.175782-50.082032 13.175782-153.933594 13.175782-153.933594s.527344-104.382813-13.183594-154.460938zm-370.601562 249.878906v-191.890624l166.585937 95.945312zm0 0" />
    </symbol>
    <symbol id="whatsapp" viewBox="0 0 448 512">
        <path d="M380.9 97.1C339 55.1 283.2 32 223.9 32c-122.4 0-222 99.6-222 222 0 39.1 10.2 77.3 29.6 111L0 480l117.7-30.9c32.4 17.7 68.9 27 106.1 27h.1c122.3 0 224.1-99.6 224.1-222 0-59.3-25.2-115-67.1-157zm-157 341.6c-33.2 0-65.7-8.9-94-25.7l-6.7-4-69.8 18.3L72 359.2l-4.4-7c-18.5-29.4-28.2-63.3-28.2-98.2 0-101.7 82.8-184.5 184.6-184.5 49.3 0 95.6 19.2 130.4 54.1 34.8 34.9 56.2 81.2 56.1 130.5 0 101.8-84.9 184.6-186.6 184.6zm101.2-138.2c-5.5-2.8-32.8-16.2-37.9-18-5.1-1.9-8.8-2.8-12.5 2.8-3.7 5.6-14.3 18-17.6 21.8-3.2 3.7-6.5 4.2-12 1.4-32.6-16.3-54-29.1-75.5-66-5.7-9.8 5.7-9.1 16.3-30.3 1.8-3.7.9-6.9-.5-9.7-1.4-2.8-12.5-30.1-17.1-41.2-4.5-10.8-9.1-9.3-12.5-9.5-3.2-.2-6.9-.2-10.6-.2-3.7 0-9.7 1.4-14.8 6.9-5.1 5.6-19.4 19-19.4 46.3 0 27.3 19.9 53.7 22.6 57.4 2.8 3.7 39.1 59.7 94.8 83.8 35.2 15.2 49 16.5 66.6 13.9 10.7-1.6 32.8-13.4 37.4-26.4 4.6-13 4.6-24.1 3.2-26.4-1.3-2.5-5-3.9-10.5-6.6z"></path>
    </symbol>
    <symbol id="telegram" viewBox="0 0 448 512">
        <path d="M446.7 98.6l-67.6 318.8c-5.1 22.5-18.4 28.1-37.3 17.5l-103-75.9-49.7 47.8c-5.5 5.5-10.1 10.1-20.7 10.1l7.4-104.9 190.9-172.5c8.3-7.4-1.8-11.5-12.9-4.1L117.8 284 16.2 252.2c-22.1-6.9-22.5-22.1 4.6-32.7L418.2 66.4c18.4-6.9 34.5 4.1 28.5 32.2z"></path>
    </symbol>
    <symbol id="google-play" viewBox="0 0 512 512">
        <path d="M325.3 234.3L104.6 13l280.8 161.2-60.1 60.1zM47 0C34 6.8 25.3 19.2 25.3 35.3v441.3c0 16.1 8.7 28.5 21.7 35.3l256.6-256L47 0zm425.2 225.6l-58.9-34.1-65.7 64.5 65.7 64.5 60.1-34.1c18-14.3 18-46.5-1.2-60.8zM104.6 499l280.8-161.2-60.1-60.1L104.6 499z"></path>
    </symbol>
    <symbol id="app-store" viewBox="0 0 512 512">
        <path d="M255.9 120.9l9.1-15.7c5.6-9.8 18.1-13.1 27.9-7.5 9.8 5.6 13.1 18.1 7.5 27.9l-87.5 151.5h63.3c20.5 0 32 24.1 23.1 40.8H113.8c-11.3 0-20.4-9.1-20.4-20.4 0-11.3 9.1-20.4 20.4-20.4h52l66.6-115.4-20.8-36.1c-5.6-9.8-2.3-22.2 7.5-27.9 9.8-5.6 22.2-2.3 27.9 7.5l8.9 15.7zm-78.7 218l-19.6 34c-5.6 9.8-18.1 13.1-27.9 7.5-9.8-5.6-13.1-18.1-7.5-27.9l14.6-25.2c16.4-5.1 29.8-1.2 40.4 11.6zm168.9-61.7h53.1c11.3 0 20.4 9.1 20.4 20.4 0 11.3-9.1 20.4-20.4 20.4h-29.5l19.9 34.5c5.6 9.8 2.3 22.2-7.5 27.9-9.8 5.6-22.2 2.3-27.9-7.5-33.5-58.1-58.7-101.6-75.4-130.6-17.1-29.5-4.9-59.1 7.2-69.1 13.4 23 33.4 57.7 60.1 104zM256 8C119 8 8 119 8 256s111 248 248 248 248-111 248-248S393 8 256 8zm216 248c0 118.7-96.1 216-216 216-118.7 0-216-96.1-216-216 0-118.7 96.1-216 216-216 118.7 0 216 96.1 216 216z"></path>
    </symbol>
    <symbol viewBox="0 0 512 512" id="random" xmlns="http://www.w3.org/2000/svg">
        <!--! Font Awesome Pro 6.1.1 by @fontawesome - https://fontawesome.com License - https://fontawesome.com/license (Commercial License) Copyright 2022 Fonticons, Inc.-->
        <path d="M424.1 287c-9.375-9.375-24.56-9.344-33.94.031s-9.375 24.56 0 33.94L430.1 360H332l-58.01-77.34-29.1 39.99 56.82 75.75c3.59 6 10.69 9.6 18.29 9.6h110.1l-39.03 39.03c-9.375 9.375-9.375 24.56 0 33.94C395.7 485.7 401.8 488 408 488s12.27-2.375 16.96-7.062l79.1-79.98c9.375-9.375 9.375-24.6 0-33.97L424.1 287zM24 152h92l58.01 77.34 29.1-39.99-55.91-75.75c-4.5-6-11.6-9.6-19.2-9.6H24c-13.25 0-24 10.8-24 24s10.75 24 24 24zm406.1 0l-39.03 39.03c-9.375 9.375-9.375 24.56 0 33.94C395.7 229.7 401.8 232 408 232s12.28-2.312 16.97-7l79.1-79.98c9.375-9.375 9.374-24.6-.001-33.97l-79.1-79.98c-9.375-9.375-24.56-9.406-33.93-.031s-9.375 24.56 0 33.94L430.1 104H320a23.993 23.993 0 00-19.19 9.594L116 360H24c-13.25 0-24 10.8-24 24s10.75 24 24 24h104c7.562 0 14.66-3.562 19.19-9.594L332 152h98.1z" />
    </symbol>
    <symbol viewBox="0 0 24 24" id="search" xmlns="http://www.w3.org/2000/svg">
        <path d="M11.5 21a9.5 9.5 0 100-19 9.5 9.5 0 000 19zM22 22l-2-2" />
    </symbol>
    <symbol viewBox="0 0 512 512" id="clock" xmlns="http://www.w3.org/2000/svg">
        <path d="M256 0c141.4 0 256 114.6 256 256S397.4 512 256 512c-52.2 0-100.8-15.6-141.3-42.5-11-7.3-14-22.2-7.6-33.2 8.2-11.1 23.1-14.1 34.2-6.8C174.1 451.3 213.5 464 256 464c114.9 0 208-93.1 208-208S370.9 48 256 48c-73.6 0-138.3 38.24-175.31 96H136c13.3 0 24 10.7 24 24s-10.7 24-24 24H24c-13.25 0-24-10.7-24-24V56c0-13.25 10.75-24 24-24s24 10.75 24 24v50.7C94.45 42.12 170.3 0 256 0zm0 128c13.3 0 24 10.7 24 24v94.1l64.1 64.9c10.2 9.4 10.2 24.6 0 33.1-8.5 10.2-23.7 10.2-33.1 0l-72-72c-4.5-3.6-7-9.7-7-16.1V152c0-13.3 10.7-24 24-24z" />
    </symbol>
    <symbol viewBox="0 0 24 24" id="explore" xmlns="http://www.w3.org/2000/svg">
        <circle cx="12" cy="12" r="2"></circle>
        <path d="M16.24 7.76a6 6 0 0 1 0 8.49m-8.48-.01a6 6 0 0 1 0-8.49m11.31-2.82a10 10 0 0 1 0 14.14m-14.14 0a10 10 0 0 1 0-14.14"></path>
    </symbol>
    <symbol id="mic" viewBox="0 0 24 24">
        <path fill="none" d="M0 0h24v24H0z"/><path d="M12 3a3 3 0 0 0-3 3v6a3 3 0 0 0 6 0V6a3 3 0 0 0-3-3zm0-2a5 5 0 0 1 5 5v6a5 5 0 0 1-10 0V6a5 5 0 0 1 5-5zM2.192 13.962l1.962-.393a8.003 8.003 0 0 0 15.692 0l1.962.393C20.896 18.545 16.85 22 12 22s-8.896-3.455-9.808-8.038z"/>
    </symbol>
    <symbol id="requests" viewBox="0 0 24 24">
        <path fill="none" d="M0 0h24v24H0z"/><path d="M11.95 7.95l-1.414 1.414L8 6.828 8 20H6V6.828L3.465 9.364 2.05 7.95 7 3l4.95 4.95zm10 8.1L17 21l-4.95-4.95 1.414-1.414 2.537 2.536L16 4h2v13.172l2.536-2.536 1.414 1.414z"/>
    </symbol>
    <symbol id="compass" viewBox="0 0 24 24">
       <path fill="none" d="M0 0h24v24H0z"/><path d="M6.116 20.087A9.986 9.986 0 0 1 2 12C2 6.477 6.477 2 12 2s10 4.477 10 10a9.986 9.986 0 0 1-4.116 8.087l-1.015-1.739a8 8 0 1 0-9.738 0l-1.015 1.739zm2.034-3.485a6 6 0 1 1 7.7 0l-1.03-1.766a4 4 0 1 0-5.64 0l-1.03 1.766zM11 13h2v9h-2v-9z"/>
    </symbol>
    <symbol id="movies" viewBox="0 0 24 24">
        <path fill="none" d="M0 0h24v24H0z"/><path d="M5.998 7l2.31-4h3.69l-2.31 4h-3.69zm6 0l2.31-4h3.69l-2.31 4h-3.69zm6 0l2.31-4h.7c.548 0 .992.445.992.993v16.014a1 1 0 0 1-.992.993H2.992A.993.993 0 0 1 2 20.007V3.993A1 1 0 0 1 2.992 3h3.006L4 6.46V19h16V7h-2.002z"/>
    </symbol>
    <symbol id="series" viewBox="0 0 24 24">
        <path fill="none" d="M0 0h24v24H0z"/><path d="M15.414 5h5.594c.548 0 .992.445.992 1v14c0 .552-.455 1-.992 1H2.992A.994.994 0 0 1 2 20V6c0-.552.455-1 .992-1h5.594L6.05 2.464 7.464 1.05 11.414 5h1.172l3.95-3.95 1.414 1.414L15.414 5zM4 7v12h16V7H4z"/>
    </symbol>
    <symbol id="fire" viewBox="0 0 24 24">
     <path fill="none" d="M0 0h24v24H0z"/><path d="M3 12h2v9H3v-9zm16-4h2v13h-2V8zm-8-6h2v19h-2V2z"/>
    </symbol>
    <symbol viewBox="0 0 24 24" id="trend" xmlns="http://www.w3.org/2000/svg">
        <polyline points="23 6 13.5 15.5 8.5 10.5 1 18"></polyline>
        <polyline points="17 6 23 6 23 12"></polyline>
    </symbol>
    <symbol viewBox="0 0 24 24" id="user" xmlns="http://www.w3.org/2000/svg">
        <path fill="none" d="M0 0h24v24H0z"/><path d="M12 17c3.662 0 6.865 1.575 8.607 3.925l-1.842.871C17.347 20.116 14.847 19 12 19c-2.847 0-5.347 1.116-6.765 2.796l-1.841-.872C5.136 18.574 8.338 17 12 17zm0-15a5 5 0 0 1 5 5v3a5 5 0 0 1-4.783 4.995L12 15a5 5 0 0 1-5-5V7a5 5 0 0 1 4.783-4.995L12 2zm0 2a3 3 0 0 0-2.995 2.824L9 7v3a3 3 0 0 0 5.995.176L15 10V7a3 3 0 0 0-3-3z"/>
    </symbol>
    <symbol viewBox="0 0 24 24" id="platforms" xmlns="http://www.w3.org/2000/svg">
        <path fill="none" d="M0 0h24v24H0z"/><path d="M6.235 6.453a8 8 0 0 0 8.817 12.944c.115-.75-.137-1.47-.24-1.722-.23-.56-.988-1.517-2.253-2.844-.338-.355-.316-.628-.195-1.437l.013-.091c.082-.554.22-.882 2.085-1.178.948-.15 1.197.228 1.542.753l.116.172c.328.48.571.59.938.756.165.075.37.17.645.325.652.373.652.794.652 1.716v.105c0 .391-.038.735-.098 1.034a8.002 8.002 0 0 0-3.105-12.341c-.553.373-1.312.902-1.577 1.265-.135.185-.327 1.132-.95 1.21-.162.02-.381.006-.613-.009-.622-.04-1.472-.095-1.744.644-.173.468-.203 1.74.356 2.4.09.105.107.3.046.519-.08.287-.241.462-.292.498-.096-.056-.288-.279-.419-.43-.313-.365-.705-.82-1.211-.96-.184-.051-.386-.093-.583-.135-.549-.115-1.17-.246-1.315-.554-.106-.226-.105-.537-.105-.865 0-.417 0-.888-.204-1.345a1.276 1.276 0 0 0-.306-.43zM12 22C6.477 22 2 17.523 2 12S6.477 2 12 2s10 4.477 10 10-4.477 10-10 10z"/>
    </symbol>
    <symbol id="dot" viewBox="0 0 24 24">
  <path fill="none" d="M0 0h24v24H0z"/><path d="M12 22C6.477 22 2 17.523 2 12S6.477 2 12 2s10 4.477 10 10-4.477 10-10 10zm0-2a8 8 0 1 0 0-16 8 8 0 0 0 0 16zm2-10h2v4h-2v-4zm-6 0h2v4H8v-4z"/>
  </symbol>
</svg>